<?xml version="1.0" encoding="UTF-8" standalone="no"?>
<!-- Created with Inkscape (http://www.inkscape.org/) -->

<svg
   version="1.1"
   id="svg2"
   xml:space="preserve"
   width="1866.6667"
   height="1306.6667"
   viewBox="0 0 1866.6667 1306.6667"
   sodipodi:docname="4-08.eps"
   xmlns:inkscape="http://www.inkscape.org/namespaces/inkscape"
   xmlns:sodipodi="http://sodipodi.sourceforge.net/DTD/sodipodi-0.dtd"
   xmlns="http://www.w3.org/2000/svg"
   xmlns:svg="http://www.w3.org/2000/svg"><defs
     id="defs6" /><sodipodi:namedview
     id="namedview4"
     pagecolor="#ffffff"
     bordercolor="#666666"
     borderopacity="1.0"
     inkscape:pageshadow="2"
     inkscape:pageopacity="0.0"
     inkscape:pagecheckerboard="0" /><g
     id="g8"
     inkscape:groupmode="layer"
     inkscape:label="ink_ext_XXXXXX"
     transform="matrix(1.3333333,0,0,-1.3333333,0,1306.6667)"><g
       id="g10"
       transform="scale(0.1)"><path
         d="m 3409.29,7232.29 c -441.74,-480.31 -1310.83,-438.02 -1800.74,-69.89 -110.06,82.71 -197.95,194.02 -261.55,321.49 -36.92,74.01 -57.7,155.89 -74.23,237.62 -8.8,43.5 -13.07,88.08 -17.6,132.28 -1.1,23.04 -2.02,41.1 -2.79,54.75 2.03,32.01 4.69,63.96 8.63,95.76 24.13,219.81 98.71,427.7 214.75,604 -56.01,-190.31 -62.12,-400.22 -45.54,-601.83 -5.47,66.5 5.48,134.84 0,201.59 -9.98,121.32 73.73,298.08 134.08,405.86 86.54,154.54 217.56,267.17 365.28,345.26 317.73,167.96 731.55,182.01 1065.12,71.33 297.82,-98.82 548.04,-354.55 636.2,-681.58 104.22,-386.59 43.85,-827.99 -221.61,-1116.64 z m 221.61,1318.23 c -72.94,335.4 -350.66,573.86 -636.2,681.58 -195.25,73.65 -429.59,94.57 -656.14,60.26 -0.15,1.94 -0.31,3.24 -0.52,3.25 -666,16.5 -1086.44,-642 -1090.06,-1315.61 -1.55,-289.89 7.12,-575.94 169.95,-820.05 168.36,-252.41 460.33,-377.72 731.37,-436.14 632.82,-136.39 1470.7,115.04 1522.71,936.59 18.36,289.97 20.43,607.16 -41.11,890.12"
         style="fill:#52423b;fill-opacity:1;fill-rule:nonzero;stroke:none"
         id="path12" /><path
         d="m 6620.11,7232.29 c -441.74,-480.31 -1310.82,-438.02 -1800.74,-69.89 -110.06,82.71 -197.95,194.02 -261.55,321.49 -36.92,74.01 -57.7,155.89 -74.23,237.62 -8.8,43.5 -13.07,88.08 -17.6,132.28 -1.09,23.04 -2.02,41.1 -2.79,54.75 2.03,32.01 4.69,63.96 8.63,95.76 24.13,219.81 98.71,427.7 214.75,604 -56.01,-190.31 -62.12,-400.22 -45.54,-601.83 -5.47,66.5 5.48,134.84 0,201.59 -9.98,121.32 73.73,298.08 134.08,405.86 86.54,154.54 217.56,267.17 365.29,345.26 317.72,167.96 731.54,182.01 1065.12,71.33 297.81,-98.82 548.03,-354.55 636.19,-681.58 104.22,-386.59 43.85,-827.99 -221.61,-1116.64 z m 221.61,1318.23 c -72.94,335.4 -350.66,573.86 -636.19,681.58 -195.26,73.65 -429.6,94.57 -656.15,60.26 -0.15,1.94 -0.31,3.24 -0.52,3.25 -666,16.5 -1086.44,-642 -1090.06,-1315.61 -1.55,-289.89 7.12,-575.94 169.95,-820.05 168.36,-252.41 460.33,-377.72 731.38,-436.14 632.81,-136.39 1470.69,115.04 1522.7,936.59 18.36,289.97 20.43,607.16 -41.11,890.12"
         style="fill:#52423b;fill-opacity:1;fill-rule:nonzero;stroke:none"
         id="path14" /><path
         d="m 9830.93,7232.29 c -441.74,-480.31 -1310.82,-438.02 -1800.74,-69.89 -110.06,82.71 -197.95,194.02 -261.55,321.49 -36.92,74.01 -57.7,155.89 -74.23,237.62 -8.8,43.5 -13.07,88.08 -17.6,132.28 -1.09,23.04 -2.02,41.1 -2.79,54.75 2.03,32.01 4.69,63.96 8.63,95.76 24.13,219.81 98.71,427.7 214.75,604 -56.01,-190.31 -62.12,-400.22 -45.54,-601.83 -5.47,66.5 5.48,134.84 0,201.59 -9.98,121.32 73.73,298.08 134.08,405.86 86.54,154.54 217.56,267.17 365.29,345.26 317.72,167.96 731.54,182.01 1065.12,71.33 297.81,-98.82 548.03,-354.55 636.15,-681.58 104.3,-386.59 43.9,-827.99 -221.57,-1116.64 z m 221.57,1318.23 c -72.9,335.4 -350.62,573.86 -636.15,681.58 -195.26,73.65 -429.6,94.57 -656.15,60.26 -0.15,1.94 -0.31,3.24 -0.52,3.25 -666,16.5 -1086.44,-642 -1090.05,-1315.61 -1.56,-289.89 7.11,-575.94 169.94,-820.05 168.36,-252.41 460.33,-377.72 731.38,-436.14 632.81,-136.39 1470.65,115.04 1522.75,936.59 18.3,289.97 20.4,607.16 -41.2,890.12"
         style="fill:#52423b;fill-opacity:1;fill-rule:nonzero;stroke:none"
         id="path16" /><path
         d="M 12841.7,7232.29 C 12400,6751.98 11530.9,6794.27 11041,7162.4 c -110.1,82.71 -197.9,194.02 -261.5,321.49 -37,74.01 -57.7,155.89 -74.3,237.62 -8.8,43.5 -13,88.08 -17.6,132.28 -1.1,23.04 -2,41.1 -2.8,54.75 2.1,32.01 4.7,63.96 8.7,95.76 24.1,219.81 98.7,427.7 214.7,604 -56,-190.31 -62.1,-400.22 -45.5,-601.83 -5.5,66.5 5.5,134.84 0,201.59 -10,121.32 73.7,298.08 134.1,405.86 86.5,154.54 217.5,267.17 365.2,345.26 317.8,167.96 731.6,182.01 1065.2,71.33 297.8,-98.82 548,-354.55 636.2,-681.58 104.2,-386.59 43.8,-827.99 -221.7,-1116.64 z m 221.7,1318.23 c -73,335.4 -350.7,573.86 -636.2,681.58 -195.3,73.65 -429.6,94.57 -656.2,60.26 -0.1,1.94 -0.3,3.24 -0.5,3.25 -666,16.5 -1086.4,-642 -1090.1,-1315.61 -1.5,-289.89 7.2,-575.94 170,-820.05 168.4,-252.41 460.3,-377.72 731.4,-436.14 632.8,-136.39 1470.7,115.04 1522.7,936.59 18.3,289.97 20.4,607.16 -41.1,890.12"
         style="fill:#52423b;fill-opacity:1;fill-rule:nonzero;stroke:none"
         id="path18" /><path
         d="m 3409.29,4168.14 c -441.74,-480.31 -1310.83,-438.03 -1800.74,-69.89 -110.06,82.7 -197.95,194.02 -261.55,321.49 -36.92,74.01 -57.7,155.89 -74.23,237.61 -8.8,43.51 -13.07,88.09 -17.6,132.29 -1.1,23.04 -2.02,41.1 -2.79,54.74 2.03,32.02 4.69,63.96 8.63,95.77 24.13,219.8 98.71,427.69 214.75,604 -56.01,-190.32 -62.12,-400.22 -45.54,-601.83 -5.47,66.49 5.48,134.83 0,201.59 -9.98,121.31 73.73,298.07 134.08,405.86 86.54,154.54 217.56,267.17 365.28,345.25 317.73,167.96 731.55,182.01 1065.12,71.33 297.82,-98.82 548.04,-354.55 636.2,-681.58 104.22,-386.59 43.85,-827.99 -221.61,-1116.63 z m 221.61,1318.22 c -72.94,335.41 -350.66,573.87 -636.2,681.58 -195.25,73.66 -429.59,94.57 -656.14,60.26 -0.15,1.95 -0.31,3.25 -0.52,3.25 -666,16.5 -1086.44,-641.99 -1090.06,-1315.6 -1.55,-289.89 7.12,-575.95 169.95,-820.05 168.36,-252.41 460.33,-377.73 731.37,-436.14 632.82,-136.4 1470.7,115.04 1522.71,936.59 18.36,289.96 20.43,607.16 -41.11,890.11"
         style="fill:#52423b;fill-opacity:1;fill-rule:nonzero;stroke:none"
         id="path20" /><path
         d="m 6620.11,4168.14 c -441.74,-480.31 -1310.82,-438.03 -1800.74,-69.89 -110.06,82.7 -197.95,194.02 -261.55,321.49 -36.92,74.01 -57.7,155.89 -74.23,237.61 -8.8,43.51 -13.07,88.09 -17.6,132.29 -1.09,23.04 -2.02,41.1 -2.79,54.74 2.03,32.02 4.69,63.96 8.63,95.77 24.13,219.8 98.71,427.69 214.75,604 -56.01,-190.32 -62.12,-400.22 -45.54,-601.83 -5.47,66.49 5.48,134.83 0,201.59 -9.98,121.31 73.73,298.07 134.08,405.86 86.54,154.54 217.56,267.17 365.29,345.25 317.72,167.96 731.54,182.01 1065.12,71.33 297.81,-98.82 548.03,-354.55 636.19,-681.58 104.22,-386.59 43.85,-827.99 -221.61,-1116.63 z m 221.61,1318.22 c -72.94,335.41 -350.66,573.87 -636.19,681.58 -195.26,73.66 -429.6,94.57 -656.15,60.26 -0.15,1.95 -0.31,3.25 -0.52,3.25 -666,16.5 -1086.44,-641.99 -1090.06,-1315.6 -1.55,-289.89 7.12,-575.95 169.95,-820.05 168.36,-252.41 460.33,-377.73 731.38,-436.14 632.81,-136.4 1470.69,115.04 1522.7,936.59 18.36,289.96 20.43,607.16 -41.11,890.11"
         style="fill:#52423b;fill-opacity:1;fill-rule:nonzero;stroke:none"
         id="path22" /><path
         d="m 9830.93,4168.14 c -441.74,-480.31 -1310.82,-438.03 -1800.74,-69.89 -110.06,82.7 -197.95,194.02 -261.55,321.49 -36.92,74.01 -57.7,155.89 -74.23,237.61 -8.8,43.51 -13.07,88.09 -17.6,132.29 -1.09,23.04 -2.02,41.1 -2.79,54.74 2.03,32.02 4.69,63.96 8.63,95.77 24.13,219.8 98.71,427.69 214.75,604 -56.01,-190.32 -62.12,-400.22 -45.54,-601.83 -5.47,66.49 5.48,134.83 0,201.59 -9.98,121.31 73.73,298.07 134.08,405.86 86.54,154.54 217.56,267.17 365.29,345.25 317.72,167.96 731.54,182.01 1065.12,71.33 297.81,-98.82 548.03,-354.55 636.15,-681.58 104.3,-386.59 43.9,-827.99 -221.57,-1116.63 z m 221.57,1318.22 c -72.9,335.41 -350.62,573.87 -636.15,681.58 -195.26,73.66 -429.6,94.57 -656.15,60.26 -0.15,1.95 -0.31,3.25 -0.52,3.25 -666,16.5 -1086.44,-641.99 -1090.05,-1315.6 -1.56,-289.89 7.11,-575.95 169.94,-820.05 168.36,-252.41 460.33,-377.73 731.38,-436.14 632.81,-136.4 1470.65,115.04 1522.75,936.59 18.3,289.96 20.4,607.16 -41.2,890.11"
         style="fill:#52423b;fill-opacity:1;fill-rule:nonzero;stroke:none"
         id="path24" /><path
         d="m 12841.7,4168.14 c -441.7,-480.31 -1310.8,-438.03 -1800.7,-69.89 -110.1,82.7 -197.9,194.02 -261.5,321.49 -37,74.01 -57.7,155.89 -74.3,237.61 -8.8,43.51 -13,88.09 -17.6,132.29 -1.1,23.04 -2,41.1 -2.8,54.74 2.1,32.02 4.7,63.96 8.7,95.77 24.1,219.8 98.7,427.69 214.7,604 -56,-190.32 -62.1,-400.22 -45.5,-601.83 -5.5,66.49 5.5,134.83 0,201.59 -10,121.31 73.7,298.07 134.1,405.86 86.5,154.54 217.5,267.17 365.2,345.25 317.8,167.96 731.6,182.01 1065.2,71.33 297.8,-98.82 548,-354.55 636.2,-681.58 104.2,-386.59 43.8,-827.99 -221.7,-1116.63 z m 221.7,1318.22 c -73,335.41 -350.7,573.87 -636.2,681.58 -195.3,73.66 -429.6,94.57 -656.2,60.26 -0.1,1.95 -0.3,3.25 -0.5,3.25 -666,16.5 -1086.4,-641.99 -1090.1,-1315.6 -1.5,-289.89 7.2,-575.95 170,-820.05 168.4,-252.41 460.3,-377.73 731.4,-436.14 632.8,-136.4 1470.7,115.04 1522.7,936.59 18.3,289.96 20.4,607.16 -41.1,890.11"
         style="fill:#52423b;fill-opacity:1;fill-rule:nonzero;stroke:none"
         id="path26" /><path
         d="M 3409.29,1103.98 C 2967.55,623.672 2098.46,665.961 1608.55,1034.1 c -110.06,82.7 -197.95,194.02 -261.55,321.48 -36.92,74.01 -57.7,155.89 -74.23,237.62 -8.8,43.5 -13.07,88.08 -17.6,132.28 -1.1,23.04 -2.02,41.1 -2.79,54.74 2.03,32.02 4.69,63.97 8.63,95.77 24.13,219.81 98.71,427.7 214.75,604 -56.01,-190.31 -62.12,-400.21 -45.54,-601.82 -5.47,66.49 5.48,134.83 0,201.59 -9.98,121.31 73.73,298.07 134.08,405.85 86.54,154.55 217.56,267.17 365.28,345.26 317.73,167.96 731.55,182.01 1065.12,71.33 297.82,-98.82 548.04,-354.55 636.2,-681.58 104.22,-386.59 43.85,-827.99 -221.61,-1116.64 z m 221.61,1318.23 c -72.94,335.4 -350.66,573.86 -636.2,681.58 -195.25,73.65 -429.59,94.57 -656.14,60.26 -0.15,1.94 -0.31,3.24 -0.52,3.25 -666,16.5 -1086.44,-641.99 -1090.06,-1315.61 -1.55,-289.89 7.12,-575.94 169.95,-820.05 168.36,-252.398 460.33,-377.718 731.37,-436.14 632.82,-136.391 1470.7,115.039 1522.71,936.59 18.36,289.97 20.43,607.16 -41.11,890.12"
         style="fill:#52423b;fill-opacity:1;fill-rule:nonzero;stroke:none"
         id="path28" /><path
         d="M 6620.11,1103.98 C 6178.37,623.672 5309.29,665.961 4819.37,1034.1 c -110.06,82.7 -197.95,194.02 -261.55,321.48 -36.92,74.01 -57.7,155.89 -74.23,237.62 -8.8,43.5 -13.07,88.08 -17.6,132.28 -1.09,23.04 -2.02,41.1 -2.79,54.74 2.03,32.02 4.69,63.97 8.63,95.77 24.13,219.81 98.71,427.7 214.75,604 -56.01,-190.31 -62.12,-400.21 -45.54,-601.82 -5.47,66.49 5.48,134.83 0,201.59 -9.98,121.31 73.73,298.07 134.08,405.85 86.54,154.55 217.56,267.17 365.29,345.26 317.72,167.96 731.54,182.01 1065.12,71.33 297.81,-98.82 548.03,-354.55 636.19,-681.58 104.22,-386.59 43.85,-827.99 -221.61,-1116.64 z m 221.61,1318.23 c -72.94,335.4 -350.66,573.86 -636.19,681.58 -195.26,73.65 -429.6,94.57 -656.15,60.26 -0.15,1.94 -0.31,3.24 -0.52,3.25 -666,16.5 -1086.44,-641.99 -1090.06,-1315.61 -1.55,-289.89 7.12,-575.94 169.95,-820.05 168.36,-252.398 460.33,-377.718 731.38,-436.14 632.81,-136.391 1470.69,115.039 1522.7,936.59 18.36,289.97 20.43,607.16 -41.11,890.12"
         style="fill:#52423b;fill-opacity:1;fill-rule:nonzero;stroke:none"
         id="path30" /><path
         d="M 9830.93,1103.98 C 9389.19,623.672 8520.11,665.961 8030.19,1034.1 c -110.06,82.7 -197.95,194.02 -261.55,321.48 -36.92,74.01 -57.7,155.89 -74.23,237.62 -8.8,43.5 -13.07,88.08 -17.6,132.28 -1.09,23.04 -2.02,41.1 -2.79,54.74 2.03,32.02 4.69,63.97 8.63,95.77 24.13,219.81 98.71,427.7 214.75,604 -56.01,-190.31 -62.12,-400.21 -45.54,-601.82 -5.47,66.49 5.48,134.83 0,201.59 -9.98,121.31 73.73,298.07 134.08,405.85 86.54,154.55 217.56,267.17 365.29,345.26 317.72,167.96 731.54,182.01 1065.12,71.33 297.81,-98.82 548.03,-354.55 636.15,-681.58 104.3,-386.59 43.9,-827.99 -221.57,-1116.64 z m 221.57,1318.23 c -72.9,335.4 -350.62,573.86 -636.15,681.58 -195.26,73.65 -429.6,94.57 -656.15,60.26 -0.15,1.94 -0.31,3.24 -0.52,3.25 -666,16.5 -1086.44,-641.99 -1090.05,-1315.61 -1.56,-289.89 7.11,-575.94 169.94,-820.05 168.36,-252.398 460.33,-377.718 731.38,-436.14 632.81,-136.391 1470.65,115.039 1522.75,936.59 18.3,289.97 20.4,607.16 -41.2,890.12"
         style="fill:#52423b;fill-opacity:1;fill-rule:nonzero;stroke:none"
         id="path32" /><path
         d="M 12841.7,1103.98 C 12400,623.672 11530.9,665.961 11041,1034.1 c -110.1,82.7 -197.9,194.02 -261.5,321.48 -37,74.01 -57.7,155.89 -74.3,237.62 -8.8,43.5 -13,88.08 -17.6,132.28 -1.1,23.04 -2,41.1 -2.8,54.74 2.1,32.02 4.7,63.97 8.7,95.77 24.1,219.81 98.7,427.7 214.7,604 -56,-190.31 -62.1,-400.21 -45.5,-601.82 -5.5,66.49 5.5,134.83 0,201.59 -10,121.31 73.7,298.07 134.1,405.85 86.5,154.55 217.5,267.17 365.2,345.26 317.8,167.96 731.6,182.01 1065.2,71.33 297.8,-98.82 548,-354.55 636.2,-681.58 104.2,-386.59 43.8,-827.99 -221.7,-1116.64 z m 221.7,1318.23 c -73,335.4 -350.7,573.86 -636.2,681.58 -195.3,73.65 -429.6,94.57 -656.2,60.26 -0.1,1.94 -0.3,3.24 -0.5,3.25 -666,16.5 -1086.4,-641.99 -1090.1,-1315.61 -1.5,-289.89 7.2,-575.94 170,-820.05 168.4,-252.398 460.3,-377.718 731.4,-436.14 632.8,-136.391 1470.7,115.039 1522.7,936.59 18.3,289.97 20.4,607.16 -41.1,890.12"
         style="fill:#52423b;fill-opacity:1;fill-rule:nonzero;stroke:none"
         id="path34" /><path
         d="m 3049.98,7997 c -259.21,210.61 -531.89,402.84 -816.85,577 -83.87,51.27 -95.28,-57.09 -28.54,-97.88 246.04,-150.39 481.77,-315.33 707.76,-494.02 -240.27,-128.44 -480.55,-256.89 -720.82,-385.33 -2.36,228.44 -3.09,456.87 -1.8,685.31 5.61,4.32 9.78,10.82 11.39,20.59 1.05,6.34 2.09,12.67 3.14,19.01 4.53,27.44 -9.86,56.95 -32.97,72.68 -5.31,3.62 -10.62,7.24 -15.93,10.86 -29.09,19.82 -95.39,40.77 -95.8,-16.94 -2.11,-295 -1.18,-589.98 2.79,-884.95 0.62,-46.08 68.14,-99.62 112.48,-75.92 297.27,158.92 594.54,317.82 891.81,476.74 39.61,21.16 6.43,74.09 -16.66,92.85"
         style="fill:#52423b;fill-opacity:1;fill-rule:nonzero;stroke:none"
         id="path36" /><path
         d="m 5478.88,8408.31 c 1.12,47.96 -145.82,37.73 -147.07,-15.97 -6.9,-295.95 -8.06,-591.91 -3.47,-887.9 0.76,-49.04 147.9,-37.11 147.07,15.97 -4.59,295.99 -3.43,591.95 3.47,887.9"
         style="fill:#52423b;fill-opacity:1;fill-rule:nonzero;stroke:none"
         id="path38" /><path
         d="m 5740.12,8390.44 v -969.82 c 0,-65.23 143.09,-34 143.09,19.19 v 969.82 c 0,65.23 -143.09,34.01 -143.09,-19.19"
         style="fill:#52423b;fill-opacity:1;fill-rule:nonzero;stroke:none"
         id="path40" /><path
         d="m 9508.01,8442.29 c -4.86,46.23 -48.76,68.94 -91.58,67.87 -263.25,-6.6 -526.21,-2.67 -789.15,11.69 -96.1,5.26 -85.12,-113.14 1.09,-117.86 246.82,-13.48 493.8,-17.64 740.88,-13.48 22.68,-269.83 12.48,-539.68 -34.46,-807.02 -4.74,-26.98 -373.4,-14.4 -407.71,-15.8 -130.69,-5.36 -260.98,-17.75 -390.73,-34.17 -0.36,273.32 -0.72,546.64 -1.08,819.97 -0.1,73.62 -144.98,98.75 -144.87,17.38 0.4,-299.96 0.79,-599.93 1.19,-899.89 0.05,-43.18 52.6,-73.37 91.58,-67.86 176.2,24.87 352.83,40.9 530.63,48.19 133.48,5.47 309.7,-37.42 429.85,27.33 35.28,19.01 36.51,86.15 41.68,118.54 14.88,93.22 26.07,186.49 33.7,280.59 15.23,187.98 8.66,377.19 -11.02,564.52"
         style="fill:#52423b;fill-opacity:1;fill-rule:nonzero;stroke:none"
         id="path42" /><path
         d="m 11900.8,8422.77 c -54.8,-9.65 75.5,-22.53 94.6,-19.17 120.7,21.24 232,-103.43 285.3,-205.79 45.7,-87.81 52.1,-194.48 42.1,-292.56 -26.5,-261.7 -285.6,-480.26 -523.7,-415.9 -459.1,124.09 -322.7,754.85 43.5,892.01 32.2,0.02 63.1,3.99 63.1,10.57 v 2.42 c 0,1.28 -0.8,2.46 -2.1,3.57 -18.8,45.64 -173.3,3.55 -196.1,-5.78 -141.3,-57.79 -245.7,-169.79 -306.7,-320.76 -147.4,-364.76 160.7,-609.29 459.6,-618.24 288.6,-8.65 565.2,136.68 600.6,485 36.4,359.01 -281.8,533.61 -560.2,484.63"
         style="fill:#52423b;fill-opacity:1;fill-rule:nonzero;stroke:none"
         id="path44" /><path
         d="m 2683.32,5282.01 c -1.01,63.49 114.52,96.69 115.71,22.62 4.74,-295.99 3.55,-591.95 -3.56,-887.9 -1.53,-63.25 -117.49,-96.42 -115.71,-22.63 7.12,295.95 8.3,591.91 3.56,887.91"
         style="fill:#52423b;fill-opacity:1;fill-rule:nonzero;stroke:none"
         id="path46" /><path
         d="m 2019.4,5083.53 311.89,304.38 c 24.14,23.55 129.57,0.13 118.8,-10.38 -80.86,-78.91 -161.72,-157.82 -242.58,-236.74 -48.82,-47.65 -227.04,-167.09 -172.63,-237.53 106.88,-138.38 233.42,-266.34 356.25,-394.4 2,96.8 3.99,193.59 5.99,290.38 1.6,77.79 3.21,155.58 4.81,233.36 1.22,59 24.96,167.34 -10.55,219.55 -21.21,6.84 -29.07,15.61 9.42,21.41 l 16.35,2.47 c 21.22,3.2 74.51,8.99 90.46,-11.31 32.18,-40.96 20.56,-89.81 19.53,-139.77 -1.61,-77.8 -3.21,-155.58 -4.82,-233.37 -3.53,-171.13 -7.06,-342.27 -10.59,-513.4 -0.59,-28.46 -106.94,-19.24 -121.11,-3.71 -162.62,178.26 -343.35,350.32 -490.8,541.22 -41.08,53.18 93.03,141.91 119.58,167.84"
         style="fill:#52423b;fill-opacity:1;fill-rule:nonzero;stroke:none"
         id="path48" /><path
         d="m 6134.78,1500.03 c 66.93,1.07 101.93,-120.73 23.85,-121.98 -312.04,-5 -624.05,-3.75 -936.03,3.76 -66.67,1.6 -101.65,123.84 -23.85,121.97 311.99,-7.5 623.99,-8.75 936.03,-3.75"
         style="fill:#52423b;fill-opacity:1;fill-rule:nonzero;stroke:none"
         id="path50" /><path
         d="m 5925.54,2199.93 320.87,-328.79 c 24.84,-25.45 0.15,-136.6 -10.93,-125.24 -83.19,85.24 -166.38,170.48 -249.58,255.73 -50.23,51.47 -176.14,239.34 -250.4,181.98 -145.88,-112.67 -280.78,-246.07 -415.77,-375.55 102.04,-2.11 204.08,-4.21 306.12,-6.32 82,-1.69 164,-3.38 246.01,-5.07 62.19,-1.29 176.4,-26.32 231.44,11.12 7.21,22.36 16.46,30.65 22.57,-9.93 l 2.61,-17.24 c 3.37,-22.37 9.48,-78.54 -11.93,-95.36 -43.17,-33.92 -94.67,-21.67 -147.35,-20.58 -82.01,1.69 -164.01,3.38 -246.02,5.07 -180.4,3.72 -360.81,7.44 -541.22,11.17 -30.01,0.62 -20.28,112.74 -3.91,127.68 187.93,171.43 369.31,361.96 570.56,517.4 56.06,43.3 149.6,-98.08 176.93,-126.07"
         style="fill:#52423b;fill-opacity:1;fill-rule:nonzero;stroke:none"
         id="path52" /><path
         d="m 11737,5282.01 c 1,63.49 -114.5,96.69 -115.7,22.62 -4.7,-295.99 -3.6,-591.95 3.6,-887.9 1.5,-63.25 117.4,-96.42 115.7,-22.63 -7.2,295.95 -8.3,591.91 -3.6,887.91"
         style="fill:#52423b;fill-opacity:1;fill-rule:nonzero;stroke:none"
         id="path54" /><path
         d="m 12400.9,5083.53 -311.9,304.38 c -24.1,23.55 -129.5,0.13 -118.8,-10.38 80.9,-78.91 161.8,-157.82 242.6,-236.74 48.8,-47.65 227.1,-167.09 172.6,-237.53 -106.8,-138.38 -233.4,-266.34 -356.2,-394.4 -2,96.8 -4,193.59 -6,290.38 -1.6,77.79 -3.2,155.58 -4.8,233.36 -1.2,59 -25,167.34 10.5,219.55 21.3,6.84 29.1,15.61 -9.4,21.41 l -16.3,2.47 c -21.2,3.2 -74.5,8.99 -90.5,-11.31 -32.2,-40.96 -20.5,-89.81 -19.5,-139.77 1.6,-77.8 3.2,-155.58 4.8,-233.37 3.5,-171.13 7.1,-342.27 10.6,-513.4 0.6,-28.46 106.9,-19.24 121.1,-3.71 162.6,178.26 343.4,350.32 490.8,541.22 41.1,53.18 -93,141.91 -119.6,167.84"
         style="fill:#52423b;fill-opacity:1;fill-rule:nonzero;stroke:none"
         id="path56" /><path
         d="m 5821.09,5067.09 311.89,304.38 c 24.13,23.55 129.57,0.14 118.8,-10.37 -80.86,-78.92 -161.72,-157.83 -242.58,-236.75 -48.83,-47.65 -227.04,-167.08 -172.63,-237.53 106.88,-138.38 233.42,-266.34 356.25,-394.4 1.99,96.8 3.99,193.6 5.99,290.39 1.6,77.79 3.21,155.57 4.81,233.36 1.22,58.99 24.96,167.33 -10.55,219.55 -21.21,6.83 -29.08,15.6 9.42,21.41 l 16.35,2.46 c 21.22,3.2 74.5,9 90.46,-11.31 32.18,-40.95 20.56,-89.8 19.52,-139.77 -1.6,-77.79 -3.21,-155.58 -4.81,-233.37 -3.53,-171.13 -7.06,-342.26 -10.59,-513.39 -0.59,-28.47 -106.95,-19.25 -121.12,-3.72 -162.61,178.27 -343.35,350.32 -490.8,541.23 -41.08,53.18 93.03,141.91 119.59,167.83"
         style="fill:#52423b;fill-opacity:1;fill-rule:nonzero;stroke:none"
         id="path58" /><path
         d="m 5102.86,5071.67 319.18,296.73 c 24.69,22.96 129.53,-3 118.51,-13.25 -82.75,-76.93 -165.5,-153.86 -248.25,-230.79 -49.97,-46.45 -231.03,-161.53 -178.34,-233.27 103.49,-140.93 226.89,-271.93 346.58,-402.92 4.34,96.72 8.68,193.43 13.03,290.15 3.49,77.72 6.98,155.45 10.47,233.17 2.65,58.95 29.01,166.68 -5.22,219.74 -21.04,7.35 -28.69,16.31 9.93,21.18 l 16.4,2.07 c 21.3,2.68 74.71,7.18 90.16,-13.5 31.18,-41.73 18.38,-90.28 16.13,-140.21 -3.49,-77.73 -6.98,-155.45 -10.47,-233.18 -7.68,-171 -15.36,-341.99 -23.04,-512.99 -1.27,-28.44 -107.37,-16.65 -121.17,-0.77 -158.24,182.15 -334.75,358.54 -477.52,552.96 -39.78,54.16 96.44,139.62 123.62,164.88"
         style="fill:#52423b;fill-opacity:1;fill-rule:nonzero;stroke:none"
         id="path60" /><path
         d="m 8816.73,5067.09 -311.89,304.38 c -24.14,23.55 -129.57,0.14 -118.8,-10.37 80.86,-78.92 161.72,-157.83 242.58,-236.75 48.83,-47.65 227.04,-167.08 172.63,-237.53 -106.88,-138.38 -233.42,-266.34 -356.25,-394.4 -1.99,96.8 -3.99,193.6 -5.99,290.39 -1.6,77.79 -3.21,155.57 -4.81,233.36 -1.22,58.99 -24.96,167.33 10.55,219.55 21.21,6.83 29.08,15.6 -9.42,21.41 l -16.35,2.46 c -21.22,3.2 -74.5,9 -90.46,-11.31 -32.18,-40.95 -20.56,-89.8 -19.52,-139.77 1.6,-77.79 3.2,-155.58 4.81,-233.37 3.53,-171.13 7.06,-342.26 10.59,-513.39 0.59,-28.47 106.94,-19.25 121.12,-3.72 162.61,178.27 343.35,350.32 490.79,541.23 41.08,53.18 -93.02,141.91 -119.58,167.83"
         style="fill:#52423b;fill-opacity:1;fill-rule:nonzero;stroke:none"
         id="path62" /><path
         d="m 9534.96,5071.67 -319.18,296.73 c -24.7,22.96 -129.53,-3 -118.51,-13.25 82.75,-76.93 165.5,-153.86 248.25,-230.79 49.97,-46.45 231.02,-161.53 178.34,-233.27 -103.5,-140.93 -226.89,-271.93 -346.58,-402.92 -4.34,96.72 -8.68,193.43 -13.03,290.15 -3.49,77.72 -6.98,155.45 -10.47,233.17 -2.65,58.95 -29.01,166.68 5.22,219.74 21.04,7.35 28.69,16.31 -9.93,21.18 l -16.41,2.07 c -21.29,2.68 -74.7,7.18 -90.16,-13.5 -31.17,-41.73 -18.37,-90.28 -16.13,-140.21 3.49,-77.73 6.98,-155.45 10.48,-233.18 7.68,-171 15.36,-341.99 23.03,-512.99 1.28,-28.44 107.38,-16.65 121.17,-0.77 158.25,182.15 334.76,358.54 477.53,552.96 39.78,54.16 -96.44,139.62 -123.62,164.88"
         style="fill:#52423b;fill-opacity:1;fill-rule:nonzero;stroke:none"
         id="path64" /><path
         d="m 2000.95,2509.58 c -57.97,-194.11 -41.38,-402.58 -41.74,-602.85 -0.37,-203.67 -21.79,-420.13 27.25,-619.39 15.83,-64.31 138.37,-52.06 122.76,11.35 -45.66,185.52 -27.68,384.45 -27.33,574.03 0.37,205.38 -19.48,422.38 39.9,621.19 19.9,66.65 -102.49,77.12 -120.84,15.67"
         style="fill:#52423b;fill-opacity:1;fill-rule:nonzero;stroke:none"
         id="path66" /><path
         d="m 2320.26,2354.13 c -3.44,72.45 -117.85,40.03 -115.02,-19.59 16.68,-351.11 24.45,-702.51 31.8,-1053.93 1.51,-72.49 116.26,-40.1 115.01,19.59 -7.34,351.41 -15.11,702.81 -31.79,1053.93"
         style="fill:#52423b;fill-opacity:1;fill-rule:nonzero;stroke:none"
         id="path68" /><path
         d="m 2588.35,1430.83 c -0.03,81.52 -0.05,163.05 -0.07,244.57 -0.05,163.05 -0.09,326.1 -0.14,489.14 -0.02,50.74 -122.93,58.17 -122.92,9.51 0.05,-146.74 0.09,-293.49 0.13,-440.23 0.02,-65.21 0.04,-130.44 0.06,-195.65 0.01,-62.07 17.56,-162.7 2.53,-229.69 -5.07,-3.4 -9.04,-7.72 -11.43,-13.02 -0.89,-1.96 -1.78,-3.93 -2.67,-5.89 -6.35,-14.06 0.03,-28.57 13.09,-36.37 2.4,-1.44 4.81,-2.88 7.21,-4.31 23.7,-14.16 89.12,-27.86 103.96,7.99 21.82,52.72 10.27,117.73 10.25,173.95"
         style="fill:#52423b;fill-opacity:1;fill-rule:nonzero;stroke:none"
         id="path70" /><path
         d="m 2806.16,1316.3 c -17.1,78.12 -9.97,163.51 -5.69,242.65 7.2,133.02 16.82,261.37 -10.3,392.88 -7.81,37.85 -103.61,105.94 -89.58,37.92 25.42,-123.24 15.13,-245.74 7.1,-370.2 -3.67,-56.85 -4.47,-113.32 -2.45,-170.23 0.77,-17.9 2.51,-35.69 5.22,-53.37 2.04,-13.91 4.08,-27.82 6.12,-41.72 -0.6,-12.33 -0.44,-21.63 0.31,-28.56 -2.52,-3.14 -4.24,-7.66 -4.67,-14.14 -0.17,-2.57 -0.34,-5.14 -0.51,-7.71 -2.28,-34.11 38.23,-74.28 69.42,-80.7 3.26,-0.66 6.51,-1.33 9.76,-2.01 9.34,-1.91 18.09,1.72 21.89,10.64 11.55,27.15 -0.61,57.07 -6.62,84.55"
         style="fill:#52423b;fill-opacity:1;fill-rule:nonzero;stroke:none"
         id="path72" /><path
         d="m 2999.71,1431.28 c -0.15,113.95 -0.3,227.9 -0.45,341.85 -0.04,31.51 -107.16,78.61 -107.12,52.57 0.06,-46 -12.08,-531.27 -3.35,-533.08 -58.64,12.16 35.35,-63.26 60.51,-68.47 3.98,-0.82 7.97,-1.65 11.96,-2.48 6.86,-1.42 17.07,-4.07 22.53,2.41 39.6,46.99 15.99,150.04 15.92,207.2"
         style="fill:#52423b;fill-opacity:1;fill-rule:nonzero;stroke:none"
         id="path74" /><path
         d="m 9218.2,2207.97 c -180.27,-0.4 -365.3,-52.96 -542.5,-91.43 l -1.91,163.39 c 225.52,21.67 451.04,43.34 676.55,65.01 4.06,-0.24 8.22,-0.2 12.52,0.41 10.48,1.47 20.97,2.94 31.45,4.41 3.72,0.52 7.13,1.33 10.23,2.39 0.63,-53.61 1.26,-107.23 1.89,-160.84 -60,19.81 -132.77,16.79 -188.23,16.66 z m 286.73,-212.22 -5.1,435.32 c -0.03,3.32 -47.26,-6.55 -75.33,-22.53 -8.1,15.21 -24.53,26.86 -46.76,24.72 -234.99,-22.58 -469.97,-45.16 -704.95,-67.74 l -0.02,0.99 c -0.01,1.56 -10.5,0.17 -24.45,-3.34 -10.99,-1.05 -21.99,-2.11 -32.98,-3.16 -47.33,-4.55 -59.58,-50.14 -37.85,-72.91 1.41,-120.66 2.82,-241.31 4.23,-361.97 1.57,-133.65 11.34,-269.46 -29.41,-398.61 -56.06,-177.68 -291.51,-240.13 -354.5,-42.93 -19.6,61.35 -28.62,121.07 -3.97,182.48 37.27,92.84 224.38,88.45 291.76,47.98 21.07,-12.66 100.56,43.25 89.44,49.93 -127.33,76.48 -323.31,-5.74 -433.01,-85.21 -69.6,-50.41 -65.28,-135.12 -48.61,-209.65 25.58,-114.44 83.63,-166.9 200.98,-161.65 166.28,7.44 315.52,138.35 363.6,290.73 32.99,104.56 21.13,225.39 19.87,332.99 l -1.5,128.36 c 12.87,-9.58 25.72,-16.35 34.68,-14.54 124.37,25.13 248.64,50.82 373.18,75.11 97.13,18.94 217.07,40.46 322.72,26.61 0.61,-52.34 1.22,-104.69 1.84,-157.04 1.56,-133.65 11.33,-269.46 -29.42,-398.61 -56.06,-177.68 -291.51,-240.13 -354.5,-42.93 -19.6,61.35 -28.62,121.07 -3.97,182.48 37.27,92.84 224.38,88.45 291.76,47.98 21.07,-12.66 100.56,43.25 89.44,49.93 -127.33,76.48 -323.31,-5.74 -433.01,-85.21 -69.6,-50.41 -65.28,-135.12 -48.61,-209.65 25.58,-114.44 83.63,-166.9 200.98,-161.65 166.28,7.44 315.52,138.35 363.6,290.73 32.99,104.56 21.13,225.39 19.87,332.99"
         style="fill:#52423b;fill-opacity:1;fill-rule:nonzero;stroke:none"
         id="path76" /><path
         d="m 12528.3,1907.54 c -72,245.28 -314.5,426.33 -573.1,368.19 -3.2,-0.73 47.1,-101 80.3,-93.53 116.7,26.24 228.7,5.66 328.3,-61.67 113.6,-76.85 105,-252.07 79.5,-366.84 -48.8,-219.11 -245.3,-353.84 -450.1,-407.58 -108.7,-28.52 -224.4,-26.05 -334.9,-12.65 -190,23.03 -305.7,161.36 -319.6,350 -15.2,207.84 122.5,513.48 368.4,491.19 8.1,-0.73 -39.5,92.22 -71.7,95.14 -337.7,30.61 -452.8,-467.86 -330.3,-708.3 146.1,-286.52 420,-368.41 727.2,-317.57 299.4,49.56 591.4,338.86 496,663.62"
         style="fill:#52423b;fill-opacity:1;fill-rule:nonzero;stroke:none"
         id="path78" /><path
         d="m 11889.4,2523.28 c -1.7,70.56 -124,66.43 -122.3,-7.73 l 17.1,-727.25 c 1.6,-70.56 123.9,-66.43 122.2,7.73 l -17,727.25"
         style="fill:#52423b;fill-opacity:1;fill-rule:nonzero;stroke:none"
         id="path80" /><path
         d="m 7322.79,423 c 8.46,0 16.24,-7.379 16.24,-7.379 l -139.45,-297.84 c -15.27,0 -51.92,-2.172 -60.87,-2.172 -8.44,0 -16.24,7.371 -16.24,7.371 l -47.68,297.84 c 28.92,0 65.08,2.18 75.91,2.18 8.48,0 16.24,-7.379 16.24,-7.379 l 14.58,-145.711 c 1.26,-12.551 1.35,-29.969 0.85,-48.32 4.69,20.031 9.84,38.992 14.89,51.789 l 57.97,147.473 c 25.71,0 57.62,2.148 67.53,2.148 h 0.03"
         style="fill:#967e72;fill-opacity:1;fill-rule:nonzero;stroke:none"
         id="path82" /><path
         d="m 7386.46,244.902 c 10.1,3.18 13.12,11.508 13.12,21.039 0,8.969 -2.9,22.379 -13.32,22.379 -18.76,0 -27.02,-30.289 -30.01,-53 z m 80.02,31.161 c 0,-32.434 -18.1,-53.872 -63.21,-63.172 l -47.33,-9.77 c 3.64,-20.402 16.45,-30.371 37.74,-30.371 26.07,0 43.52,19.68 43.52,19.68 0,0 13.3,-7.418 13.3,-22.649 0,-27.019 -41.44,-56.332 -89.64,-56.332 -48.9,0 -80.81,30.903 -80.81,83.082 0,60.282 42.71,142.059 118.72,142.059 41.63,0 67.71,-24.649 67.71,-62.527"
         style="fill:#967e72;fill-opacity:1;fill-rule:nonzero;stroke:none"
         id="path84" /><path
         d="m 7593.91,338.59 c 38.35,0 67.17,-20.328 67.17,-46.719 0,-33 -39.95,-45.058 -39.95,-45.058 0,0 -11.72,36.039 -38.58,36.039 -18.2,0 -28.68,-18.411 -28.68,-57.672 0,-36.16 9.52,-52.43 32.91,-52.43 24.01,0 38.78,16.352 38.78,16.352 0,0 13.32,-7.411 13.32,-22.223 0,-25.859 -39.8,-53.43 -86.14,-53.43 -49.34,0 -79.74,30.903 -79.74,82.274 0,61.09 43.67,142.867 120.94,142.867 h -0.03"
         style="fill:#967e72;fill-opacity:1;fill-rule:nonzero;stroke:none"
         id="path86" /><path
         d="m 7778.18,386.719 c 9.24,0 15.39,-7.047 15.39,-7.047 l -7.22,-45.43 h 48.12 l -10.85,-34.633 c -3.52,-11.148 -9.06,-17.308 -20.34,-17.308 h -25.14 l -14.02,-88.512 c -2.28,-14.309 0.84,-20.93 10.58,-21.039 8.85,-0.059 17.58,5.402 17.58,5.402 0,0 13.43,-7.48 13.43,-21.523 0,-21.668 -30.91,-43.18 -70.01,-43.18 -41.48,0 -58.21,25.383 -51.18,69.793 l 15.66,99.059 h -26.1 l 11.36,36.129 c 2.92,9.269 10.57,15.812 19.93,15.812 h 12.69 l 15.21,41.821 c 18.83,4.617 36.37,10.656 44.91,10.656"
         style="fill:#967e72;fill-opacity:1;fill-rule:nonzero;stroke:none"
         id="path88" /><path
         d="m 7931.82,244.902 c 10.09,3.18 13.12,11.508 13.12,21.039 0,8.969 -2.92,22.379 -13.32,22.379 -18.76,0 -27.05,-30.289 -30.02,-53 z m 80,31.161 c 0,-32.434 -18.09,-53.872 -63.2,-63.172 l -47.34,-9.77 c 3.66,-20.402 16.47,-30.371 37.73,-30.371 26.07,0 43.53,19.68 43.53,19.68 0,0 13.32,-7.418 13.32,-22.649 0,-27.019 -41.44,-56.332 -89.64,-56.332 -48.92,0 -80.81,30.903 -80.81,83.082 0,60.282 42.69,142.059 118.72,142.059 41.62,0 67.71,-24.649 67.71,-62.527 h -0.02"
         style="fill:#967e72;fill-opacity:1;fill-rule:nonzero;stroke:none"
         id="path90" /><path
         d="m 8124.89,244.902 c 10.09,3.18 13.12,11.508 13.12,21.039 0,8.969 -2.94,22.379 -13.32,22.379 -18.76,0 -27.05,-30.289 -30.03,-53 z m 79.99,31.161 c 0,-32.434 -18.09,-53.872 -63.19,-63.172 l -47.34,-9.77 c 3.64,-20.402 16.46,-30.371 37.73,-30.371 26.1,0 43.52,19.68 43.52,19.68 0,0 13.33,-7.418 13.33,-22.649 0,-27.019 -41.44,-56.332 -89.64,-56.332 -48.92,0 -80.83,30.903 -80.83,83.082 0,60.282 42.73,142.059 118.72,142.059 41.64,0 67.73,-24.649 67.73,-62.527 h -0.03"
         style="fill:#967e72;fill-opacity:1;fill-rule:nonzero;stroke:none"
         id="path92" /><path
         d="m 8362.82,195.199 c 0,0 16.28,-15.027 16.28,-39.898 0,-33.172 -28.09,-41.852 -51.63,-41.852 -30.67,0 -52.98,14.621 -76.32,22.512 -6.5,-7.5 -12.87,-15.02 -18.98,-22.512 0,0 -34.57,0.871 -34.57,24.422 0,28.719 47.86,77.969 99.44,133.789 -5.95,1.059 -11.65,1.801 -16.8,1.801 -29.32,0 -40.68,-14.652 -40.68,-14.652 0,0 -15.08,17.343 -13.81,39.91 1.71,31.293 31.47,39.871 54.84,39.871 24.78,0 42.97,-9.578 60.86,-17.418 l 14.52,17.418 c 0,0 34.88,-1.078 34.88,-24.75 0,-27.699 -46.33,-76.07 -96.41,-130.07 10.6,-2.961 20.46,-5.36 30.25,-5.36 25.98,0 38.13,16.789 38.13,16.789"
         style="fill:#967e72;fill-opacity:1;fill-rule:nonzero;stroke:none"
         id="path94" /><path
         d="M 8587.27,132.551 C 8574.83,56.7305 8522.86,18.1992 8457.08,18.1992 c -42,0 -73.35,22.0625 -73.35,47.6328 0,16.8672 14.04,24.6797 14.04,24.6797 0,0 14.28,-13 42.43,-13 26.41,0 62.21,11.2578 68.49,51.1093 l 4.94,31.02 c -17.72,-25.5 -41.24,-46.192 -70.94,-46.192 -33.38,0 -48.24,27.313 -39.45,82.801 l 9.5,60.07 c 5.84,36.789 7.44,66.801 7.44,66.801 23.75,4.391 55.07,15.469 66.03,15.469 8.49,0 16.36,-7.078 16.36,-7.078 l -11.89,-75.192 -11,-69.359 c -1.01,-6.398 0.2,-9.988 6,-9.988 27.66,0 43.26,79.347 43.26,79.347 5.81,36.789 7.43,66.801 7.43,66.801 23.72,4.391 55.05,15.469 66.01,15.469 8.5,0 16.38,-7.078 16.38,-7.078 l -11.91,-75.192 -19.58,-123.769"
         style="fill:#967e72;fill-opacity:1;fill-rule:nonzero;stroke:none"
         id="path96" /><path
         d="M 5421.98,292.301 V 158.672 h 30.41 c 11.38,0 19.59,0.641 24.64,1.918 6.6,1.652 12.08,4.449 16.44,8.402 4.36,3.938 7.91,10.43 10.67,19.477 2.75,9.023 4.13,21.351 4.13,36.941 0,15.602 -1.38,27.57 -4.13,35.922 -2.76,8.348 -6.61,14.867 -11.56,19.547 -4.96,4.672 -11.24,7.84 -18.86,9.492 -5.69,1.289 -16.83,1.93 -33.44,1.93 z m -40.74,34.129 h 74.45 c 16.79,0 29.59,-1.289 38.4,-3.848 11.84,-3.492 21.97,-9.684 30.42,-18.582 8.44,-8.898 14.86,-19.809 19.26,-32.68 4.41,-12.91 6.61,-28.8 6.61,-47.699 0,-16.601 -2.07,-30.91 -6.19,-42.93 -5.05,-14.679 -12.25,-26.562 -21.61,-35.652 -7.06,-6.879 -16.61,-12.25 -28.63,-16.098 -8.99,-2.851 -21.01,-4.269 -36.05,-4.269 h -76.66 V 326.43"
         style="fill:#967e72;fill-opacity:1;fill-rule:nonzero;stroke:none"
         id="path98" /><path
         d="m 5665.85,210.281 c -0.27,11.188 -3.16,19.688 -8.67,25.528 -5.5,5.812 -12.2,8.73 -20.09,8.73 -8.44,0 -15.42,-3.07 -20.92,-9.219 -5.5,-6.148 -8.21,-14.488 -8.12,-25.039 z m -2.2,-39.09 38.54,-6.472 c -4.96,-14.129 -12.78,-24.887 -23.47,-32.278 -10.69,-7.39 -24.06,-11.07 -40.12,-11.07 -25.41,0 -44.22,8.301 -56.42,24.91 -9.64,13.301 -14.45,30.09 -14.45,50.367 0,24.223 6.33,43.184 18.99,56.903 12.66,13.719 28.67,20.578 48.03,20.578 21.74,0 38.9,-7.188 51.47,-21.527 12.57,-14.372 18.58,-36.36 18.03,-66 h -96.89 c 0.28,-11.473 3.4,-20.403 9.36,-26.762 5.96,-6.391 13.4,-9.57 22.3,-9.57 6.05,0 11.14,1.652 15.27,4.949 4.13,3.312 7.25,8.633 9.36,15.972"
         style="fill:#967e72;fill-opacity:1;fill-rule:nonzero;stroke:none"
         id="path100" /><path
         d="m 5716.5,166.371 38.81,5.918 c 1.65,-7.519 5,-13.238 10.04,-17.129 5.05,-3.91 12.12,-5.847 21.2,-5.847 10,0 17.52,1.828 22.57,5.5 3.39,2.566 5.09,6.007 5.09,10.316 0,2.941 -0.92,5.371 -2.75,7.301 -1.93,1.832 -6.24,3.531 -12.94,5.09 -31.19,6.882 -50.96,13.171 -59.31,18.851 -11.56,7.899 -17.34,18.859 -17.34,32.899 0,12.66 5,23.3 15,31.921 10,8.629 25.5,12.938 46.51,12.938 20,0 34.87,-3.258 44.59,-9.77 9.73,-6.507 16.43,-16.148 20.1,-28.898 l -36.47,-6.742 c -1.56,5.683 -4.52,10.043 -8.88,13.07 -4.36,3.031 -10.57,4.543 -18.65,4.543 -10.18,0 -17.48,-1.422 -21.88,-4.262 -2.94,-2.019 -4.4,-4.64 -4.4,-7.851 0,-2.75 1.28,-5.09 3.85,-7.02 3.49,-2.57 15.53,-6.187 36.12,-10.867 20.6,-4.684 34.98,-10.41 43.15,-17.203 8.07,-6.879 12.11,-16.469 12.11,-28.77 0,-13.386 -5.6,-24.91 -16.79,-34.539 -11.19,-9.629 -27.75,-14.449 -49.68,-14.449 -19.91,0 -35.67,4.039 -47.27,12.109 -11.61,8.083 -19.2,19.04 -22.78,32.891"
         style="fill:#967e72;fill-opacity:1;fill-rule:nonzero;stroke:none"
         id="path102" /><path
         d="m 5881.24,124.672 v 146.16 h 38.67 v -146.16 z m 0,165.98 v 35.778 h 38.67 v -35.778 h -38.67"
         style="fill:#967e72;fill-opacity:1;fill-rule:nonzero;stroke:none"
         id="path104" /><path
         d="m 5984.88,200.781 c 0,-15.511 3,-26.871 9.01,-34.062 6.01,-7.207 13.42,-10.809 22.23,-10.809 9.45,0 17.43,3.692 23.95,11.09 6.51,7.371 9.77,18.32 9.77,32.813 0,15.136 -3.12,26.378 -9.36,33.718 -6.24,7.34 -14.13,11.008 -23.67,11.008 -9.27,0 -16.91,-3.598 -22.92,-10.809 -6.01,-7.199 -9.01,-18.179 -9.01,-32.949 z m -34.54,-85.742 44.17,-5.367 c 0.74,-5.141 2.44,-8.672 5.1,-10.6017 3.67,-2.75 9.45,-4.1211 17.34,-4.1211 10.09,0 17.66,1.5117 22.7,4.543 3.4,2.0198 5.97,5.2698 7.71,9.7698 1.19,3.207 1.79,9.129 1.79,17.75 v 21.328 c -11.56,-15.781 -26.15,-23.668 -43.76,-23.668 -19.64,0 -35.19,8.308 -46.66,24.91 -8.99,13.117 -13.49,29.449 -13.49,49 0,24.488 5.9,43.207 17.69,56.148 11.79,12.93 26.45,19.399 43.97,19.399 18.07,0 32.98,-7.93 44.73,-23.809 v 20.512 h 36.19 v -131.16 c 0,-17.25 -1.42,-30.141 -4.26,-38.672 -2.85,-8.5312 -6.84,-15.2305 -11.98,-20.0898 -5.14,-4.8711 -11.99,-8.668 -20.57,-11.4297 -8.58,-2.75 -19.43,-4.1211 -32.55,-4.1211 -24.77,0 -42.34,4.25 -52.71,12.7422 -10.37,8.4804 -15.55,19.2304 -15.55,32.2574 0,1.289 0.04,2.852 0.14,4.68"
         style="fill:#967e72;fill-opacity:1;fill-rule:nonzero;stroke:none"
         id="path106" /><path
         d="m 6253.39,124.672 h -38.67 v 74.598 c 0,15.781 -0.83,25.972 -2.48,30.609 -1.65,4.633 -4.33,8.242 -8.05,10.812 -3.72,2.571 -8.19,3.848 -13.42,3.848 -6.7,0 -12.7,-1.828 -18.03,-5.5 -5.32,-3.668 -8.96,-8.527 -10.94,-14.59 -1.97,-6.058 -2.96,-17.25 -2.96,-33.578 v -66.199 h -38.67 v 146.16 h 35.92 v -21.473 c 12.75,16.512 28.81,24.77 48.17,24.77 8.53,0 16.33,-1.539 23.4,-4.617 7.06,-3.071 12.4,-6.992 16.03,-11.762 3.62,-4.77 6.15,-10.18 7.57,-16.23 1.42,-6.059 2.13,-14.731 2.13,-26.008 v -90.84"
         style="fill:#967e72;fill-opacity:1;fill-rule:nonzero;stroke:none"
         id="path108" /><path
         d="m 6373.81,210.281 c -0.27,11.188 -3.16,19.688 -8.67,25.528 -5.5,5.812 -12.2,8.73 -20.09,8.73 -8.44,0 -15.42,-3.07 -20.92,-9.219 -5.51,-6.148 -8.21,-14.488 -8.12,-25.039 z m -2.2,-39.09 38.53,-6.472 c -4.95,-14.129 -12.77,-24.887 -23.46,-32.278 -10.69,-7.39 -24.06,-11.07 -40.12,-11.07 -25.41,0 -44.22,8.301 -56.42,24.91 -9.64,13.301 -14.45,30.09 -14.45,50.367 0,24.223 6.33,43.184 18.99,56.903 12.66,13.719 28.67,20.578 48.03,20.578 21.74,0 38.9,-7.188 51.47,-21.527 12.57,-14.372 18.58,-36.36 18.03,-66 h -96.89 c 0.28,-11.473 3.4,-20.403 9.36,-26.762 5.96,-6.391 13.4,-9.57 22.3,-9.57 6.05,0 11.14,1.652 15.27,4.949 4.13,3.312 7.25,8.633 9.36,15.972"
         style="fill:#967e72;fill-opacity:1;fill-rule:nonzero;stroke:none"
         id="path110" /><path
         d="m 6468.92,200.922 c 0,-15.602 2.15,-26.891 6.47,-33.863 6.23,-10.086 14.95,-15.137 26.14,-15.137 8.9,0 16.47,3.801 22.71,11.348 6.24,7.582 9.36,18.882 9.36,33.929 0,16.793 -3.03,28.871 -9.08,36.262 -6.06,7.379 -13.81,11.078 -23.26,11.078 -9.18,0 -16.86,-3.648 -23.05,-10.93 -6.2,-7.308 -9.29,-18.199 -9.29,-32.687 z m 103.22,-76.25 h -35.92 v 21.469 c -5.97,-8.352 -13.01,-14.571 -21.13,-18.649 -8.12,-4.07 -16.31,-6.121 -24.57,-6.121 -16.79,0 -31.17,6.758 -43.14,20.309 -11.97,13.519 -17.96,32.402 -17.96,56.621 0,24.769 5.83,43.601 17.48,56.5 11.65,12.879 26.38,19.328 44.17,19.328 16.34,0 30.47,-6.789 42.39,-20.367 v 72.668 h 38.68 V 124.672"
         style="fill:#967e72;fill-opacity:1;fill-rule:nonzero;stroke:none"
         id="path112" /><path
         d="m 6714.03,200.922 c 0,-15.141 2.39,-26.34 7.16,-33.582 6.7,-10.281 15.6,-15.418 26.7,-15.418 8.53,0 15.8,3.641 21.81,10.949 6.01,7.281 9.02,18.777 9.02,34.469 0,16.699 -3.03,28.73 -9.09,36.121 -6.05,7.379 -13.81,11.078 -23.26,11.078 -9.26,0 -16.97,-3.598 -23.12,-10.809 -6.14,-7.199 -9.22,-18.128 -9.22,-32.808 z m -38.39,-76.25 V 326.43 h 38.67 v -72.668 c 11.93,13.578 26.05,20.367 42.39,20.367 17.8,0 32.52,-6.449 44.17,-19.328 11.66,-12.899 17.48,-31.399 17.48,-55.531 0,-24.957 -5.94,-44.18 -17.82,-57.668 -11.88,-13.493 -26.31,-20.231 -43.28,-20.231 -8.35,0 -16.59,2.09 -24.71,6.27 -8.12,4.16 -15.11,10.339 -20.98,18.5 v -21.469 h -35.92"
         style="fill:#967e72;fill-opacity:1;fill-rule:nonzero;stroke:none"
         id="path114" /><path
         d="m 6825.52,270.832 h 41.14 l 34.96,-103.773 34.13,103.773 h 40.05 l -51.61,-140.652 -9.22,-25.461 c -3.39,-8.5393 -6.63,-15.0471 -9.7,-19.5471 -3.07,-4.4922 -6.61,-8.1328 -10.6,-10.9297 -3.99,-2.8008 -8.9,-4.9805 -14.72,-6.543 -5.83,-1.5586 -12.41,-2.3398 -19.75,-2.3398 -7.44,0 -14.73,0.7812 -21.88,2.3398 l -3.45,30.2696 c 6.06,-1.1875 11.52,-1.7891 16.38,-1.7891 8.99,0 15.64,2.6523 19.96,7.9103 4.31,5.289 7.61,12 9.91,20.172 l -55.6,146.57"
         style="fill:#967e72;fill-opacity:1;fill-rule:nonzero;stroke:none"
         id="path116" /></g></g></svg>
