<?xml version="1.0" encoding="UTF-8"?>
<svg xmlns="http://www.w3.org/2000/svg" xmlns:xlink="http://www.w3.org/1999/xlink" width="140px" height="53px" viewBox="0 0 139 53" version="1.1">
<defs>
<clipPath id="clip1">
  <path d="M 90.351562 3.253906 L 120.929688 3.253906 L 120.929688 32 L 90.351562 32 Z M 90.351562 3.253906 "/>
</clipPath>
<clipPath id="clip2">
  <path d="M 118.292969 8.105469 C 113.96875 2.316406 104.816406 1.929688 97.84375 7.230469 C 90.867188 12.527344 88.714844 21.507812 93.039062 27.289062 C 97.359375 33.082031 106.519531 33.460938 113.492188 28.167969 C 120.464844 22.867188 122.613281 13.882812 118.292969 8.105469 Z M 118.292969 8.105469 "/>
</clipPath>
<clipPath id="clip3">
  <path d="M 75.25 14.835938 L 111.296875 -12.558594 L 136.230469 20.816406 L 100.195312 48.195312 Z M 75.25 14.835938 "/>
</clipPath>
<clipPath id="clip4">
  <path d="M 118.292969 8.105469 C 113.96875 2.316406 104.816406 1.929688 97.84375 7.230469 C 90.867188 12.527344 88.714844 21.507812 93.039062 27.289062 C 97.359375 33.082031 106.519531 33.460938 113.492188 28.167969 C 120.464844 22.867188 122.613281 13.882812 118.292969 8.105469 Z M 118.292969 8.105469 "/>
</clipPath>
<clipPath id="clip5">
  <path d="M 85.289062 17.058594 L 110.53125 -2.121094 L 126.191406 18.839844 L 100.949219 38.015625 Z M 85.289062 17.058594 "/>
</clipPath>
<clipPath id="clip6">
  <path d="M 90.351562 3.253906 L 120.929688 3.253906 L 120.929688 32 L 90.351562 32 Z M 90.351562 3.253906 "/>
</clipPath>
<clipPath id="clip7">
  <path d="M 118.292969 8.105469 C 113.96875 2.316406 104.816406 1.929688 97.84375 7.230469 C 90.867188 12.527344 88.714844 21.507812 93.039062 27.289062 C 97.359375 33.082031 106.519531 33.460938 113.492188 28.167969 C 120.464844 22.867188 122.613281 13.882812 118.292969 8.105469 Z M 118.292969 8.105469 "/>
</clipPath>
<clipPath id="clip8">
  <path d="M 75.25 14.835938 L 111.296875 -12.558594 L 136.230469 20.816406 L 100.195312 48.195312 Z M 75.25 14.835938 "/>
</clipPath>
<clipPath id="clip9">
  <path d="M 118.292969 8.105469 C 113.96875 2.316406 104.816406 1.929688 97.84375 7.230469 C 90.867188 12.527344 88.714844 21.507812 93.039062 27.289062 C 97.359375 33.082031 106.519531 33.460938 113.492188 28.167969 C 120.464844 22.867188 122.613281 13.882812 118.292969 8.105469 Z M 118.292969 8.105469 "/>
</clipPath>
<clipPath id="clip10">
  <path d="M 88.890625 29.648438 L 97.597656 -0.984375 L 122.613281 6.242188 L 113.902344 36.882812 Z M 88.890625 29.648438 "/>
</clipPath>
<clipPath id="clip11">
  <path d="M 90.351562 3.253906 L 120.929688 3.253906 L 120.929688 32 L 90.351562 32 Z M 90.351562 3.253906 "/>
</clipPath>
<clipPath id="clip12">
  <path d="M 118.292969 8.105469 C 113.96875 2.316406 104.816406 1.929688 97.84375 7.230469 C 90.867188 12.527344 88.714844 21.507812 93.039062 27.289062 C 97.359375 33.082031 106.519531 33.460938 113.492188 28.167969 C 120.464844 22.867188 122.613281 13.882812 118.292969 8.105469 Z M 118.292969 8.105469 "/>
</clipPath>
<clipPath id="clip13">
  <path d="M 75.25 14.835938 L 111.296875 -12.558594 L 136.230469 20.816406 L 100.195312 48.195312 Z M 75.25 14.835938 "/>
</clipPath>
<clipPath id="clip14">
  <path d="M 118.292969 8.105469 C 113.96875 2.316406 104.816406 1.929688 97.84375 7.230469 C 90.867188 12.527344 88.714844 21.507812 93.039062 27.289062 C 97.359375 33.082031 106.519531 33.460938 113.492188 28.167969 C 120.464844 22.867188 122.613281 13.882812 118.292969 8.105469 Z M 118.292969 8.105469 "/>
</clipPath>
<clipPath id="clip15">
  <path d="M 85.289062 17.058594 L 110.53125 -2.121094 L 126.191406 18.839844 L 100.949219 38.015625 Z M 85.289062 17.058594 "/>
</clipPath>
<clipPath id="clip16">
  <path d="M 90.351562 3.253906 L 120.929688 3.253906 L 120.929688 32 L 90.351562 32 Z M 90.351562 3.253906 "/>
</clipPath>
<clipPath id="clip17">
  <path d="M 118.292969 8.105469 C 113.96875 2.316406 104.816406 1.929688 97.84375 7.230469 C 90.867188 12.527344 88.714844 21.507812 93.039062 27.289062 C 97.359375 33.082031 106.519531 33.460938 113.492188 28.167969 C 120.464844 22.867188 122.613281 13.882812 118.292969 8.105469 Z M 118.292969 8.105469 "/>
</clipPath>
<clipPath id="clip18">
  <path d="M 75.25 14.835938 L 111.296875 -12.558594 L 136.230469 20.816406 L 100.195312 48.195312 Z M 75.25 14.835938 "/>
</clipPath>
<clipPath id="clip19">
  <path d="M 118.292969 8.105469 C 113.96875 2.316406 104.816406 1.929688 97.84375 7.230469 C 90.867188 12.527344 88.714844 21.507812 93.039062 27.289062 C 97.359375 33.082031 106.519531 33.460938 113.492188 28.167969 C 120.464844 22.867188 122.613281 13.882812 118.292969 8.105469 Z M 118.292969 8.105469 "/>
</clipPath>
<clipPath id="clip20">
  <path d="M 88.890625 29.648438 L 97.597656 -0.984375 L 122.613281 6.242188 L 113.902344 36.882812 Z M 88.890625 29.648438 "/>
</clipPath>
<clipPath id="clip21">
  <path d="M 90.351562 3.253906 L 120.929688 3.253906 L 120.929688 32 L 90.351562 32 Z M 90.351562 3.253906 "/>
</clipPath>
<clipPath id="clip22">
  <path d="M 118.292969 8.105469 C 113.96875 2.316406 104.816406 1.929688 97.84375 7.230469 C 90.867188 12.527344 88.714844 21.507812 93.039062 27.289062 C 97.359375 33.082031 106.519531 33.460938 113.492188 28.167969 C 120.464844 22.867188 122.613281 13.882812 118.292969 8.105469 Z M 118.292969 8.105469 "/>
</clipPath>
<clipPath id="clip23">
  <path d="M 75.25 14.835938 L 111.296875 -12.558594 L 136.230469 20.816406 L 100.195312 48.195312 Z M 75.25 14.835938 "/>
</clipPath>
<clipPath id="clip24">
  <path d="M 118.292969 8.105469 C 113.96875 2.316406 104.816406 1.929688 97.84375 7.230469 C 90.867188 12.527344 88.714844 21.507812 93.039062 27.289062 C 97.359375 33.082031 106.519531 33.460938 113.492188 28.167969 C 120.464844 22.867188 122.613281 13.882812 118.292969 8.105469 Z M 118.292969 8.105469 "/>
</clipPath>
<clipPath id="clip25">
  <path d="M 90.351562 3.253906 L 120.929688 3.253906 L 120.929688 32 L 90.351562 32 Z M 90.351562 3.253906 "/>
</clipPath>
<clipPath id="clip26">
  <path d="M 118.292969 8.105469 C 113.96875 2.316406 104.816406 1.929688 97.84375 7.230469 C 90.867188 12.527344 88.714844 21.507812 93.039062 27.289062 C 97.359375 33.082031 106.519531 33.460938 113.492188 28.167969 C 120.464844 22.867188 122.613281 13.882812 118.292969 8.105469 Z M 118.292969 8.105469 "/>
</clipPath>
<clipPath id="clip27">
  <path d="M 75.25 14.835938 L 111.296875 -12.558594 L 136.230469 20.816406 L 100.195312 48.195312 Z M 75.25 14.835938 "/>
</clipPath>
<clipPath id="clip28">
  <path d="M 98.121094 9 L 114.46875 9 L 114.46875 26 L 98.121094 26 Z M 98.121094 9 "/>
</clipPath>
<clipPath id="clip29">
  <path d="M 118.292969 8.105469 C 113.96875 2.316406 104.816406 1.929688 97.84375 7.230469 C 90.867188 12.527344 88.714844 21.507812 93.039062 27.289062 C 97.359375 33.082031 106.519531 33.460938 113.492188 28.167969 C 120.464844 22.867188 122.613281 13.882812 118.292969 8.105469 Z M 118.292969 8.105469 "/>
</clipPath>
<clipPath id="clip30">
  <path d="M 75.25 14.835938 L 111.296875 -12.558594 L 136.230469 20.816406 L 100.195312 48.195312 Z M 75.25 14.835938 "/>
</clipPath>
</defs>
<g id="surface1">
<path style=" stroke:none;fill-rule:nonzero;fill:white;fill-opacity:1;" d="M 71.757812 17.726562 L 78.355469 17.304688 C 78.507812 18.394531 78.785156 19.195312 79.242188 19.78125 C 79.964844 20.6875 80.96875 21.148438 82.296875 21.148438 C 83.273438 21.148438 84.050781 20.921875 84.582031 20.441406 C 85.089844 20.058594 85.382812 19.449219 85.382812 18.816406 C 85.382812 18.207031 85.109375 17.636719 84.636719 17.25 C 84.128906 16.792969 82.953125 16.339844 81.09375 15.9375 C 78.058594 15.25 75.878906 14.34375 74.597656 13.179688 C 73.3125 12.089844 72.589844 10.488281 72.636719 8.800781 C 72.636719 7.632812 72.992188 6.472656 73.644531 5.507812 C 74.398438 4.417969 75.417969 3.550781 76.65625 3.074219 C 77.988281 2.496094 79.839844 2.183594 82.179688 2.183594 C 85.035156 2.183594 87.21875 2.71875 88.726562 3.808594 C 90.230469 4.875 91.132812 6.597656 91.410156 8.945312 L 84.882812 9.320312 C 84.714844 8.320312 84.359375 7.578125 83.773438 7.097656 C 83.203125 6.621094 82.445312 6.394531 81.476562 6.394531 C 80.667969 6.394531 80.070312 6.566406 79.667969 6.898438 C 79.285156 7.195312 79.039062 7.65625 79.0625 8.167969 C 79.0625 8.542969 79.261719 8.898438 79.5625 9.132812 C 79.890625 9.429688 80.667969 9.707031 81.902344 9.964844 C 84.9375 10.613281 87.097656 11.277344 88.429688 11.957031 C 89.746094 12.644531 90.707031 13.480469 91.285156 14.460938 C 91.890625 15.472656 92.183594 16.640625 92.167969 17.835938 C 92.167969 19.25 91.761719 20.664062 90.964844 21.851562 C 90.132812 23.09375 88.972656 24.054688 87.617188 24.640625 C 86.195312 25.273438 84.382812 25.601562 82.222656 25.601562 C 78.410156 25.601562 75.769531 24.867188 74.289062 23.367188 C 72.8125 21.886719 71.9375 20.003906 71.757812 17.726562 Z M 1.703125 25.21875 L 1.703125 2.59375 L 13.277344 2.59375 C 15.414062 2.59375 17.066406 2.773438 18.195312 3.148438 C 19.300781 3.507812 20.28125 4.238281 20.929688 5.230469 C 21.664062 6.320312 22.015625 7.578125 21.984375 8.898438 C 22.0625 11.125 20.929688 13.253906 19.003906 14.367188 C 18.25 14.792969 17.417969 15.101562 16.566406 15.25 C 17.195312 15.425781 17.820312 15.734375 18.375 16.082031 C 18.804688 16.4375 19.152344 16.839844 19.480469 17.269531 C 19.855469 17.707031 20.1875 18.191406 20.453125 18.691406 L 23.816406 25.253906 L 15.9375 25.253906 L 12.222656 18.285156 C 11.746094 17.394531 11.347656 16.824219 10.96875 16.546875 C 10.464844 16.191406 9.871094 16.011719 9.261719 16.011719 L 8.65625 16.011719 L 8.65625 25.199219 L 1.703125 25.199219 Z M 8.65625 11.757812 L 11.59375 11.757812 C 12.222656 11.703125 12.832031 11.609375 13.425781 11.457031 C 13.882812 11.375 14.285156 11.125 14.550781 10.742188 C 15.234375 9.832031 15.136719 8.542969 14.308594 7.761719 C 13.851562 7.375 12.976562 7.175781 11.722656 7.175781 L 8.65625 7.175781 Z M 0.128906 44.609375 L 6.726562 44.179688 C 6.878906 45.269531 7.15625 46.082031 7.601562 46.660156 C 8.300781 47.566406 9.339844 48.046875 10.667969 48.046875 C 11.648438 48.046875 12.421875 47.824219 12.957031 47.339844 C 13.453125 46.9375 13.753906 46.359375 13.753906 45.714844 C 13.753906 45.121094 13.476562 44.535156 13 44.15625 C 12.5 43.699219 11.316406 43.242188 9.441406 42.832031 C 6.394531 42.152344 4.214844 41.242188 2.9375 40.078125 C 1.660156 38.988281 0.929688 37.394531 0.976562 35.695312 C 0.976562 34.535156 1.332031 33.371094 1.980469 32.40625 C 2.738281 31.316406 3.769531 30.460938 4.996094 29.980469 C 6.324219 29.394531 8.1875 29.09375 10.515625 29.09375 C 13.382812 29.09375 15.566406 29.632812 17.066406 30.710938 C 18.582031 31.800781 19.449219 33.496094 19.726562 35.847656 L 13.199219 36.230469 C 13.03125 35.21875 12.679688 34.480469 12.09375 33.996094 C 11.550781 33.515625 10.761719 33.292969 9.796875 33.328125 C 8.984375 33.328125 8.390625 33.496094 7.988281 33.847656 C 7.578125 34.160156 7.355469 34.605469 7.378906 35.117188 C 7.378906 35.496094 7.578125 35.847656 7.878906 36.082031 C 8.210938 36.382812 8.984375 36.660156 10.21875 36.917969 C 13.253906 37.574219 15.414062 38.230469 16.746094 38.910156 C 18.074219 39.597656 19.027344 40.429688 19.601562 41.421875 C 20.210938 42.429688 20.503906 43.589844 20.503906 44.757812 C 20.503906 46.179688 20.078125 47.566406 19.300781 48.761719 C 18.472656 50.003906 17.320312 50.960938 15.957031 51.539062 C 14.53125 52.183594 12.722656 52.503906 10.570312 52.503906 C 6.75 52.503906 4.121094 51.773438 2.640625 50.28125 C 1.160156 48.761719 0.332031 46.882812 0.128906 44.609375 Z M 0.128906 44.609375 "/>
<path style=" stroke:none;fill-rule:nonzero;fill:white;fill-opacity:1;" d="M 33.507812 42.832031 L 39.582031 44.679688 C 39.25 46.234375 38.582031 47.695312 37.644531 48.984375 C 36.792969 50.128906 35.667969 51.015625 34.386719 51.59375 C 33.078125 52.183594 31.425781 52.480469 29.417969 52.480469 C 26.980469 52.480469 24.976562 52.128906 23.445312 51.414062 C 21.886719 50.707031 20.558594 49.449219 19.425781 47.640625 C 18.304688 45.847656 17.75 43.546875 17.75 40.742188 C 17.75 36.988281 18.726562 34.105469 20.707031 32.105469 C 22.683594 30.113281 25.476562 29.09375 29.085938 29.09375 C 31.925781 29.09375 34.132812 29.671875 35.769531 30.816406 C 37.367188 31.980469 38.582031 33.75 39.382812 36.128906 L 33.257812 37.496094 C 33.109375 36.972656 32.875 36.4375 32.578125 35.972656 C 32.203125 35.453125 31.726562 35.046875 31.148438 34.738281 C 30.574219 34.4375 29.917969 34.308594 29.265625 34.308594 C 27.679688 34.308594 26.476562 34.9375 25.648438 36.230469 C 25.03125 37.171875 24.699219 38.65625 24.699219 40.6875 C 24.699219 43.1875 25.074219 44.914062 25.828125 45.847656 C 26.582031 46.789062 27.636719 47.246094 29.011719 47.246094 C 30.339844 47.246094 31.355469 46.859375 32.023438 46.125 C 32.707031 45.34375 33.207031 44.253906 33.507812 42.832031 Z M 47.683594 29.46875 L 54.617188 29.46875 L 54.617188 37.394531 L 62.195312 37.394531 L 62.195312 29.46875 L 69.167969 29.46875 L 69.167969 52.09375 L 62.195312 52.09375 L 62.195312 42.941406 L 54.617188 42.941406 L 54.617188 52.09375 L 47.683594 52.09375 Z M 47.683594 29.46875 "/>
<path style=" stroke:none;fill-rule:nonzero;fill:white;fill-opacity:1;" d="M 68.222656 40.785156 C 68.222656 37.097656 69.246094 34.203125 71.277344 32.160156 C 73.3125 30.113281 76.171875 29.066406 79.816406 29.066406 C 83.550781 29.066406 86.417969 30.078125 88.449219 32.105469 C 90.484375 34.128906 91.484375 36.972656 91.484375 40.609375 C 91.484375 43.269531 91.039062 45.421875 90.15625 47.117188 C 89.300781 48.78125 87.972656 50.152344 86.34375 51.058594 C 84.660156 51.996094 82.574219 52.480469 80.09375 52.480469 C 77.558594 52.480469 75.472656 52.074219 73.8125 51.261719 C 72.105469 50.40625 70.707031 49.0625 69.777344 47.414062 C 68.746094 45.644531 68.222656 43.445312 68.222656 40.785156 Z M 75.140625 40.8125 C 75.140625 43.089844 75.582031 44.734375 76.402344 45.75 C 77.230469 46.734375 78.386719 47.246094 79.839844 47.246094 C 81.316406 47.246094 82.476562 46.765625 83.308594 45.769531 C 84.128906 44.789062 84.535156 43.035156 84.535156 40.507812 C 84.535156 38.378906 84.105469 36.808594 83.253906 35.847656 C 82.402344 34.863281 81.246094 34.382812 79.792969 34.382812 C 78.507812 34.328125 77.28125 34.886719 76.429688 35.882812 C 75.582031 36.863281 75.140625 38.507812 75.140625 40.8125 Z M 98.585938 40.785156 C 98.585938 37.097656 99.617188 34.203125 101.65625 32.160156 C 103.683594 30.113281 106.550781 29.066406 110.179688 29.066406 C 113.925781 29.066406 116.8125 30.078125 118.8125 32.105469 C 120.828125 34.128906 121.859375 36.972656 121.859375 40.609375 C 121.859375 43.269531 121.402344 45.421875 120.527344 47.117188 C 119.675781 48.78125 118.34375 50.152344 116.707031 51.058594 C 115.023438 51.996094 112.949219 52.480469 110.457031 52.480469 C 107.921875 52.480469 105.847656 52.074219 104.183594 51.261719 C 102.484375 50.40625 101.078125 49.0625 100.140625 47.414062 C 99.117188 45.644531 98.585938 43.445312 98.585938 40.785156 Z M 105.515625 40.8125 C 105.515625 43.089844 105.945312 44.734375 106.773438 45.75 C 107.605469 46.734375 108.75 47.246094 110.210938 47.246094 C 111.695312 47.246094 112.839844 46.765625 113.671875 45.769531 C 114.5 44.789062 114.910156 43.035156 114.910156 40.507812 C 114.910156 38.378906 114.480469 36.808594 113.617188 35.847656 C 112.769531 34.863281 111.617188 34.382812 110.15625 34.382812 C 108.882812 34.328125 107.628906 34.886719 106.796875 35.882812 C 105.945312 36.863281 105.515625 38.507812 105.515625 40.8125 Z M 105.515625 40.8125 "/>
<path style=" stroke:none;fill-rule:nonzero;fill:white;fill-opacity:1;" d="M 121.125 29.46875 L 128.054688 29.46875 L 128.054688 46.527344 L 138.871094 46.527344 L 138.871094 52.09375 L 121.105469 52.09375 L 121.105469 29.46875 Z M 121.125 29.46875 "/>
<path style=" stroke:none;fill-rule:nonzero;fill:rgb(100%,100%,100%);fill-opacity:1;" d="M 118.292969 8.105469 C 113.96875 2.316406 104.816406 1.929688 97.84375 7.230469 C 90.867188 12.527344 88.714844 21.507812 93.039062 27.289062 C 97.359375 33.082031 106.519531 33.460938 113.492188 28.167969 C 120.464844 22.867188 122.613281 13.882812 118.292969 8.105469 Z M 118.292969 8.105469 "/>
<g clip-path="url(#clip1)" clip-rule="nonzero">
<g clip-path="url(#clip2)" clip-rule="nonzero">
<path style=" stroke:none;fill-rule:nonzero;fill:rgb(100%,100%,100%);fill-opacity:1;" d="M 75.25 14.835938 L 111.296875 -12.558594 L 136.230469 20.816406 L 100.195312 48.195312 Z M 75.25 14.835938 "/>
<g clip-path="url(#clip3)" clip-rule="nonzero">
<path style=" stroke:none;fill-rule:nonzero;fill:rgb(100%,100%,100%);fill-opacity:1;" d="M 118.292969 8.105469 C 113.96875 2.316406 104.816406 1.929688 97.84375 7.230469 C 90.867188 12.527344 88.714844 21.507812 93.039062 27.289062 C 97.359375 33.082031 106.519531 33.460938 113.492188 28.167969 C 120.464844 22.867188 122.613281 13.882812 118.292969 8.105469 Z M 118.292969 8.105469 "/>
<g clip-path="url(#clip4)" clip-rule="nonzero">
<path style=" stroke:none;fill-rule:nonzero;fill:rgb(100%,100%,100%);fill-opacity:1;" d="M 85.289062 17.058594 L 110.53125 -2.121094 L 126.191406 18.839844 L 100.949219 38.015625 Z M 85.289062 17.058594 "/>
<g clip-path="url(#clip5)" clip-rule="nonzero">
<path style="fill-rule:nonzero;fill:rgb(100%,100%,100%);fill-opacity:1;stroke-width:4;stroke-linecap:butt;stroke-linejoin:miter;stroke:rgb(0%,0%,0%);stroke-opacity:1;stroke-miterlimit:10;" d="M 483.479054 67.902639 C 483.485375 39.267031 455.282996 16.101073 420.492091 16.108047 C 385.698045 16.093328 357.495151 39.2695 357.507408 67.880457 C 357.479369 96.519025 385.715895 119.691389 420.497512 119.696741 C 455.288417 119.689768 483.48817 96.491904 483.479054 67.902639 Z M 483.479054 67.902639 " transform="matrix(0.200446,-0.152321,0.151053,0.202129,11.124486,68.024168)"/>
</g>
</g>
</g>
</g>
</g>
<g clip-path="url(#clip6)" clip-rule="nonzero">
<g clip-path="url(#clip7)" clip-rule="nonzero">
<g clip-path="url(#clip8)" clip-rule="nonzero">
<g clip-path="url(#clip9)" clip-rule="nonzero">
<g clip-path="url(#clip10)" clip-rule="nonzero">
<path style="fill:none;stroke-width:4;stroke-linecap:butt;stroke-linejoin:miter;stroke:rgb(0%,0%,0%);stroke-opacity:1;stroke-miterlimit:10;" d="M 357.795751 16.999421 L 483.720543 17.003882 L 483.709584 120.694755 L 357.79408 120.677968 Z M 357.795751 16.999421 " transform="matrix(0.200449,-0.152318,0.151049,0.202132,11.001482,68.12113)"/>
</g>
</g>
</g>
</g>
</g>
<g clip-path="url(#clip11)" clip-rule="nonzero">
<g clip-path="url(#clip12)" clip-rule="nonzero">
<g clip-path="url(#clip13)" clip-rule="nonzero">
<g clip-path="url(#clip14)" clip-rule="nonzero">
<path style="fill:none;stroke-width:4;stroke-linecap:butt;stroke-linejoin:miter;stroke:rgb(0%,0%,0%);stroke-opacity:1;stroke-miterlimit:10;" d="M 483.479054 67.902639 C 483.485375 39.267031 455.282996 16.101073 420.492091 16.108047 C 385.698045 16.093328 357.495151 39.2695 357.507408 67.880457 C 357.479369 96.519025 385.715895 119.691389 420.497512 119.696741 C 455.288417 119.689768 483.48817 96.491904 483.479054 67.902639 Z M 483.479054 67.902639 " transform="matrix(0.200446,-0.152321,0.151053,0.202129,11.124486,68.024168)"/>
<path style=" stroke:none;fill-rule:nonzero;fill:rgb(100%,100%,100%);fill-opacity:1;" d="M 85.289062 17.058594 L 110.53125 -2.121094 L 126.191406 18.839844 L 100.949219 38.015625 Z M 85.289062 17.058594 "/>
<g clip-path="url(#clip15)" clip-rule="nonzero">
<path style="fill-rule:nonzero;fill:rgb(100%,100%,100%);fill-opacity:1;stroke-width:4;stroke-linecap:butt;stroke-linejoin:miter;stroke:rgb(0%,0%,0%);stroke-opacity:1;stroke-miterlimit:10;" d="M 483.479054 67.902639 C 483.485375 39.267031 455.282996 16.101073 420.492091 16.108047 C 385.698045 16.093328 357.495151 39.2695 357.507408 67.880457 C 357.479369 96.519025 385.715895 119.691389 420.497512 119.696741 C 455.288417 119.689768 483.48817 96.491904 483.479054 67.902639 Z M 483.479054 67.902639 " transform="matrix(0.200446,-0.152321,0.151053,0.202129,11.124486,68.024168)"/>
</g>
</g>
</g>
</g>
</g>
<g clip-path="url(#clip16)" clip-rule="nonzero">
<g clip-path="url(#clip17)" clip-rule="nonzero">
<g clip-path="url(#clip18)" clip-rule="nonzero">
<g clip-path="url(#clip19)" clip-rule="nonzero">
<g clip-path="url(#clip20)" clip-rule="nonzero">
<path style="fill:none;stroke-width:4;stroke-linecap:butt;stroke-linejoin:miter;stroke:rgb(0%,0%,0%);stroke-opacity:1;stroke-miterlimit:10;" d="M 357.795751 16.999421 L 483.720543 17.003882 L 483.709584 120.694755 L 357.79408 120.677968 Z M 357.795751 16.999421 " transform="matrix(0.200449,-0.152318,0.151049,0.202132,11.001482,68.12113)"/>
</g>
</g>
</g>
</g>
</g>
<g clip-path="url(#clip21)" clip-rule="nonzero">
<g clip-path="url(#clip22)" clip-rule="nonzero">
<g clip-path="url(#clip23)" clip-rule="nonzero">
<g clip-path="url(#clip24)" clip-rule="nonzero">
<path style="fill:none;stroke-width:4;stroke-linecap:butt;stroke-linejoin:miter;stroke:rgb(0%,0%,0%);stroke-opacity:1;stroke-miterlimit:10;" d="M 330.873182 -14.190754 L 510.711582 -14.197865 L 510.686867 150.900471 L 330.922909 150.886378 Z M 330.873182 -14.190754 " transform="matrix(0.200446,-0.152321,0.151053,0.202129,11.071233,68.10311)"/>
</g>
</g>
</g>
</g>
<g clip-path="url(#clip25)" clip-rule="nonzero">
<g clip-path="url(#clip26)" clip-rule="nonzero">
<g clip-path="url(#clip27)" clip-rule="nonzero">
<path style="fill:none;stroke-width:4;stroke-linecap:butt;stroke-linejoin:miter;stroke:rgb(0%,0%,0%);stroke-opacity:1;stroke-miterlimit:10;" d="M 483.479054 67.902639 C 483.485375 39.267031 455.282996 16.101073 420.492091 16.108047 C 385.698045 16.093328 357.495151 39.2695 357.507408 67.880457 C 357.479369 96.519025 385.715895 119.691389 420.497512 119.696741 C 455.288417 119.689768 483.48817 96.491904 483.479054 67.902639 Z M 483.479054 67.902639 " transform="matrix(0.200446,-0.152321,0.151053,0.202129,11.124486,68.024168)"/>
</g>
</g>
</g>
<g clip-path="url(#clip28)" clip-rule="nonzero">
<g clip-path="url(#clip29)" clip-rule="nonzero">
<g clip-path="url(#clip30)" clip-rule="nonzero">
<path style=" stroke:none;fill-rule:nonzero;fill:rgb(0%,0%,0%);fill-opacity:1;" d="M 98.621094 16.027344 L 101.121094 14.257812 L 104.207031 18.691406 C 104.738281 19.394531 105.144531 20.164062 105.445312 20.996094 C 105.613281 21.628906 105.570312 22.308594 105.3125 22.921875 C 104.984375 23.679688 104.460938 24.308594 103.761719 24.765625 C 102.929688 25.34375 102.226562 25.675781 101.632812 25.777344 C 101.046875 25.878906 100.449219 25.777344 99.894531 25.53125 C 99.289062 25.21875 98.765625 24.789062 98.363281 24.234375 L 100.523438 22.207031 C 100.695312 22.484375 100.925781 22.742188 101.171875 22.941406 C 101.355469 23.074219 101.558594 23.144531 101.78125 23.144531 C 101.949219 23.144531 102.132812 23.074219 102.257812 22.964844 C 102.5 22.816406 102.6875 22.515625 102.652344 22.207031 C 102.578125 21.777344 102.410156 21.351562 102.132812 21.019531 Z M 106.144531 18.839844 L 108.425781 17.027344 C 108.679688 17.324219 109.007812 17.546875 109.359375 17.675781 C 109.859375 17.835938 110.378906 17.726562 110.808594 17.394531 C 111.117188 17.195312 111.363281 16.917969 111.464844 16.5625 C 111.617188 16.105469 111.363281 15.605469 110.914062 15.457031 C 110.839844 15.425781 110.765625 15.402344 110.691406 15.402344 C 110.378906 15.378906 109.859375 15.503906 109.082031 15.828125 C 107.804688 16.359375 106.796875 16.5625 106.046875 16.492188 C 105.3125 16.414062 104.636719 16.027344 104.238281 15.402344 C 103.929688 14.972656 103.78125 14.460938 103.761719 13.957031 C 103.761719 13.378906 103.90625 12.792969 104.238281 12.3125 C 104.71875 11.632812 105.292969 11.054688 106 10.589844 C 107.050781 9.855469 107.976562 9.5 108.773438 9.5 C 109.582031 9.5 110.34375 9.886719 111.042969 10.667969 L 108.773438 12.464844 C 108.328125 11.886719 107.476562 11.757812 106.898438 12.214844 L 106.828125 12.292969 C 106.570312 12.445312 106.398438 12.667969 106.292969 12.945312 C 106.222656 13.144531 106.273438 13.378906 106.398438 13.554688 C 106.496094 13.679688 106.644531 13.777344 106.828125 13.777344 C 107.019531 13.8125 107.371094 13.703125 107.882812 13.480469 C 109.125 12.945312 110.085938 12.644531 110.734375 12.535156 C 111.285156 12.445312 111.863281 12.492188 112.394531 12.722656 C 112.871094 12.921875 113.269531 13.277344 113.546875 13.703125 C 113.894531 14.214844 114.097656 14.824219 114.132812 15.457031 C 114.152344 16.105469 113.96875 16.746094 113.617188 17.304688 C 113.171875 17.984375 112.59375 18.5625 111.917969 19.019531 C 110.53125 19.984375 109.402344 20.386719 108.507812 20.238281 C 107.53125 20.082031 106.71875 19.574219 106.144531 18.839844 Z M 106.144531 18.839844 "/>
</g>
</g>
</g>
</g>
</svg>
