<?xml version="1.0" encoding="UTF-8"?>
<svg xmlns="http://www.w3.org/2000/svg" xmlns:xlink="http://www.w3.org/1999/xlink" width="40px" height="40px" viewBox="0 0 40 40" version="1.1">
<g id="surface1">
<path style="fill:none;stroke-width:1.28;stroke-linecap:round;stroke-linejoin:round;stroke:rgb(60%,60%,60%);stroke-opacity:1;stroke-miterlimit:4;" d="M 262.701121 326.851395 C 259.701108 332.051417 348.801488 368.801574 345.451474 374.651599 C 343.651466 377.751612 253.601082 314.951344 250.601069 320.151366 C 248.35106 324.151383 344.051468 369.651577 342.15146 373.001591 C 340.251452 376.351606 273.151165 334.651428 271.551159 337.351439 C 268.451145 342.851463 350.751497 375.851604 347.551483 381.251627 C 345.801475 384.30164 276.751181 338.051442 275.151174 340.801454 C 273.251166 344.051468 345.251473 374.051596 342.15146 379.451619 C 340.251452 382.751633 275.351175 339.451448 273.351166 342.951463 C 271.90116 345.451474 349.751492 380.501623 346.85148 385.401644 C 345.701475 387.451653 293.851254 353.151507 291.751245 356.801522 C 289.451235 360.651539 346.751479 384.101639 344.751471 387.451653 C 342.751462 390.751667 290.051238 356.051519 288.651232 358.55153 C 286.651223 361.951544 342.601462 386.151648 341.051455 388.751659 C 339.651449 391.251669 289.751236 357.851527 288.651232 359.751535 C 287.151225 362.251546 346.001476 389.751663 344.651471 392.101673 C 343.651466 393.901681 310.701326 374.401597 309.651321 376.251605 C 308.101315 378.851616 350.051494 396.651692 348.801488 398.851702 C 347.001481 402.151716 302.601291 370.001579 301.351286 372.151588 C 300.251281 374.151596 350.551496 398.151699 349.551491 400.001707 C 348.601487 401.551713 309.651321 378.051613 308.251315 380.451623 C 306.901309 382.851634 343.151464 398.251699 342.15146 400.051707 C 341.651458 400.85171 327.451397 395.751689 327.151396 396.351691 C 326.351392 397.801697 346.051476 405.751731 345.401474 406.851736 C 344.651471 408.151741 323.601381 396.15169 322.951378 397.251695 C 322.051374 398.851702 338.651445 404.551726 337.851441 405.901732 C 337.751441 406.151733 333.251422 408.551743 333.051421 408.851744 C 332.951421 409.151746 341.351456 413.251763 341.201456 413.501764 C 341.051455 413.751765 335.651432 411.301755 335.551432 411.501756 C 335.451431 411.701757 339.551449 413.751765 339.551449 413.851766 " transform="matrix(0.0781247,0,0,0.0781247,0,0)"/>
<path style="fill:none;stroke-width:1.28;stroke-linecap:round;stroke-linejoin:round;stroke:rgb(60%,60%,60%);stroke-opacity:1;stroke-miterlimit:4;" d="M 339.85145 101.450433 C 339.75145 101.750434 347.851484 105.650451 347.701484 105.950452 C 347.551483 106.300454 340.551453 107.350458 340.301452 107.75046 C 339.85145 108.550463 344.45147 109.050465 343.951468 109.850469 C 343.801467 110.15047 336.451436 109.650468 336.251435 110.000469 C 335.551432 111.250475 343.851467 113.150483 343.351465 114.100487 C 343.251465 114.250487 340.101451 119.100508 339.95145 119.400509 C 339.051447 120.850516 341.351456 119.000508 340.851454 119.950512 C 340.551453 120.400514 329.301405 117.950503 328.951404 118.550506 C 327.951399 120.350513 341.551457 123.350526 340.451453 125.150534 C 340.351452 125.350535 334.301426 127.850545 334.051425 128.250547 C 333.151421 129.850554 343.351465 132.100564 342.701462 133.250569 C 342.351461 133.850571 323.55138 123.200526 322.951378 124.15053 C 322.201375 125.500535 346.95148 135.650579 345.951476 137.450586 C 345.051472 139.050593 316.051348 125.200534 315.251345 126.65054 C 313.95134 128.85055 346.251477 143.05061 345.551474 144.150615 C 345.151473 144.950618 328.351401 135.750579 327.751398 136.700583 C 326.651394 138.700592 340.051451 141.050602 338.851446 143.100611 C 338.451444 143.850614 316.201349 132.850567 315.451346 134.100572 C 314.651343 135.550578 345.151473 149.100636 344.251469 150.650643 C 343.251465 152.25065 317.651355 138.25059 316.901352 139.550595 C 315.951348 141.150602 345.751475 152.150649 343.951468 155.150662 C 343.201464 156.500668 304.8013 136.150581 304.051297 137.450586 C 302.151289 140.6506 352.351503 161.850691 350.851497 164.450702 C 350.151494 165.600707 319.751364 144.350616 318.65136 146.250624 C 316.751351 149.450638 337.651441 155.050662 336.651436 156.700669 C 336.151434 157.500672 316.751351 144.150615 315.951348 145.450621 C 314.951344 147.150628 339.651449 155.650664 338.151443 158.250675 C 337.40144 159.550681 310.851326 145.650621 310.351324 146.500625 C 308.851318 149.000636 341.151456 161.500689 339.95145 163.650698 C 338.451444 166.200709 303.651296 140.050598 302.151289 142.550608 C 301.051284 144.450616 341.101455 160.550685 339.151447 163.9507 C 337.751441 166.35071 299.701279 143.05061 298.751275 144.650617 C 297.151268 147.450629 338.351444 163.650698 336.651436 166.550711 C 335.451431 168.75072 305.051302 150.450642 304.301298 151.800648 C 303.251294 153.650656 337.751441 168.550719 336.651436 170.450727 C 335.501431 172.450736 299.701279 150.250641 298.651274 151.950648 C 296.651266 155.350663 349.551491 176.650754 347.551483 180.150769 C 346.451478 182.200777 294.501257 152.000649 293.00125 154.60066 C 290.801241 158.450676 341.501457 179.600766 340.201452 181.850776 C 338.951446 184.050785 297.901271 158.100675 296.251264 161.000687 C 294.051255 164.850703 351.5515 187.800801 349.351491 191.650818 C 347.851484 194.200829 295.101259 165.150705 294.051255 166.850712 C 292.051246 170.350727 354.451512 196.000836 352.001502 200.250854 C 349.851493 203.95087 294.151255 170.200726 292.451248 173.050738 C 290.951241 175.650749 343.401465 197.400842 341.251456 201.150858 C 339.651449 203.95087 277.101182 165.250705 275.601176 167.850716 C 274.101169 170.450727 346.151477 205.250876 344.751471 207.750886 C 343.201464 210.400898 285.90122 169.450723 283.55121 173.55074 C 280.851198 178.15076 340.401452 199.550851 337.45144 204.650873 C 335.551432 207.850887 284.251213 175.650749 282.551206 178.550762 C 279.551193 183.650784 354.051511 212.450906 350.851497 217.95093 C 348.201486 222.450949 280.701198 178.05076 279.151191 180.750771 C 276.151178 185.850793 349.451491 216.750925 347.501483 220.20094 C 345.651475 223.450953 276.351179 179.050764 273.651168 183.650784 C 271.85116 186.850797 339.451448 216.150922 337.051438 220.25094 C 335.451431 222.950951 271.451158 178.20076 269.401149 181.750775 C 267.451141 185.15079 345.751475 221.850947 344.051468 224.850959 C 342.651462 227.25097 274.15117 187.4008 272.851164 189.650809 C 270.101152 194.45083 347.651483 225.750963 344.651471 231.050986 C 342.851463 234.050999 264.95113 187.050798 263.251123 189.95081 C 261.051114 193.750827 349.15149 231.150986 345.551474 237.451013 C 342.551462 242.751036 270.151153 188.150803 267.15114 193.350825 C 265.451133 196.250837 345.251473 231.100986 342.15146 236.65101 C 338.951446 242.151033 259.251106 186.000794 257.251098 189.450808 C 254.251085 194.650831 341.401457 233.550996 339.451448 236.951011 C 336.851437 241.45103 257.7511 191.250816 255.301089 195.550834 C 251.601073 201.950862 354.951514 246.251051 351.951502 251.351072 C 348.551487 257.351098 257.8511 199.15085 256.151093 202.050862 C 253.551082 206.550881 351.951502 250.551069 349.051489 255.651091 C 345.301473 262.101118 249.151063 191.350816 245.251046 198.150845 C 241.50103 204.600873 347.251482 251.251072 344.751471 255.601091 C 341.151456 261.851117 244.251042 198.600847 242.451034 201.750861 C 240.251025 205.650877 352.051502 258.151101 349.101489 263.301123 C 344.951472 270.551154 238.551018 190.800814 233.950998 198.750848 C 231.150986 203.550868 344.751471 257.451098 342.451461 261.451116 C 338.451444 268.451145 220.850942 192.750822 218.550932 196.80084 C 215.150918 202.650865 340.851454 259.851109 337.60144 265.551133 C 333.201422 273.201166 219.750938 189.75081 215.500919 197.150841 C 209.850895 207.000883 346.651479 266.651138 343.951468 271.301158 C 340.551453 277.201183 216.000922 193.050824 212.450906 199.25085 C 207.150884 208.400889 355.251516 270.751155 350.551496 278.95119 C 344.251469 289.751236 195.950836 186.150794 191.750818 193.500826 C 187.050798 201.65086 350.251494 275.251174 346.051476 282.551206 C 343.351465 287.251226 203.450868 195.650835 199.500851 202.450864 C 193.300825 213.150909 347.951485 279.701193 344.251469 286.05122 C 340.651453 292.351247 186.650796 188.250803 182.050777 196.250837 C 176.650754 205.550877 352.401504 283.351209 347.551483 291.751245 C 341.551457 302.051289 177.150756 190.250812 174.050743 195.550834 C 169.350723 203.750869 355.651517 286.351222 349.551491 296.851267 C 346.251477 302.551291 170.250726 185.000789 164.650703 194.750831 C 161.350688 200.550856 344.151468 288.651232 339.95145 295.901263 C 333.951425 306.301307 182.450778 198.450847 178.650762 205.050875 C 171.450732 217.600928 353.251507 297.051267 349.451491 303.651296 C 343.401465 314.15134 183.650784 195.750835 177.450757 206.500881 C 170.600728 218.400932 343.451465 294.301256 339.95145 300.301281 C 334.251426 310.151323 173.35074 191.750818 166.950712 202.850865 C 163.250697 209.250893 346.751479 294.101255 341.301456 303.501295 C 336.151434 312.351333 169.300722 197.400842 163.9507 206.650882 C 160.150683 213.150909 352.651505 298.151272 345.151473 311.201328 C 341.751458 317.051353 169.550723 208.150888 165.850708 214.550915 C 161.70069 221.750946 342.401461 307.301311 338.451444 314.15134 C 332.80142 323.951382 178.450761 214.400915 174.350744 221.550945 C 169.850725 229.400979 349.801492 306.151306 342.551462 318.65136 C 339.151447 324.551385 164.450702 209.350893 160.100683 216.900925 C 153.950657 227.550971 352.951506 320.251366 349.451491 326.251392 C 345.151473 333.651424 166.250709 211.250901 161.70069 219.050935 C 158.350676 224.850959 349.30149 317.401354 345.051472 324.851386 C 341.001455 331.651415 169.450723 210.350897 162.800695 222.000947 C 157.550672 231.050986 345.301473 311.70133 338.551444 323.45138 C 334.551427 330.45141 178.15076 221.450945 172.650737 230.950985 C 167.150713 240.501026 358.051528 320.601368 350.551496 333.651424 C 345.651475 342.051459 168.550719 219.450936 162.050691 230.650984 C 155.000661 242.951037 355.351516 329.001404 349.651492 339.001446 C 342.551462 351.351499 164.250701 220.800942 159.30068 229.350979 C 153.750656 239.00102 346.651479 328.651402 342.851463 335.25143 C 339.001446 341.951459 170.000725 227.750972 166.150709 234.451 C 159.35068 246.15105 352.101502 325.351388 345.001472 337.651441 C 339.201447 347.651483 164.1007 227.100969 159.600681 234.951002 C 152.850652 246.651052 356.25152 332.651419 349.401491 344.45147 C 344.001468 353.751509 176.750754 234.150999 171.20073 243.85104 C 163.650698 256.851096 342.351461 328.851403 336.351435 339.151447 C 332.051417 346.501478 169.850725 229.850981 163.900699 240.151025 C 156.650668 252.651078 355.551517 341.401457 351.5515 348.451487 C 348.251486 354.051511 170.650728 236.351008 166.650711 243.251038 C 162.450693 250.501069 355.801518 338.801446 349.851493 349.051489 C 345.151473 357.201524 171.450732 242.451034 168.350718 248.001058 C 164.350701 255.001088 346.001476 342.751462 342.601462 348.601487 C 336.951438 358.451529 167.200713 237.851015 160.750686 248.951062 C 155.150662 258.751104 346.551479 338.451444 338.851446 351.751501 C 335.05143 358.351529 180.350769 249.851066 174.300744 260.351111 C 167.550715 272.051161 357.851527 350.451495 351.001498 362.351546 C 345.051472 372.60159 163.350697 251.251072 159.35068 258.251102 C 152.25065 270.501154 353.351508 362.451546 349.951493 368.251571 C 346.251477 374.651599 166.150709 248.55106 159.650681 259.751108 C 156.250667 265.751134 350.851497 361.951544 347.251482 368.05157 C 342.451461 376.451606 177.350757 263.801126 173.250739 270.851156 C 167.250714 281.2512 351.6515 365.151558 347.951485 371.651586 C 342.851463 380.451623 167.700716 258.651104 161.550689 269.201149 C 159.45068 272.901164 240.051024 306.701309 236.65101 312.551334 C 233.950998 317.301354 166.750711 268.951148 164.500702 272.851164 C 161.350688 278.251187 245.251046 313.551338 242.701036 317.951357 C 241.201029 320.551368 168.350718 275.351175 166.150709 279.201191 C 164.350701 282.251204 224.150956 306.95131 221.650946 311.201328 C 220.25094 313.651338 169.150722 280.651197 167.950717 282.701206 C 166.750711 284.751215 221.350944 309.951322 219.750938 312.651334 C 218.750933 314.351341 165.950708 281.3512 164.700703 283.50121 C 162.450693 287.401226 223.500954 312.851335 221.500945 316.30135 C 219.500937 319.751364 168.150717 286.451222 166.850712 288.601231 C 164.550702 292.651249 215.450919 312.151332 213.450911 315.501346 C 211.850904 318.301358 172.150735 295.051259 170.950729 297.101268 C 169.900725 298.951276 198.650848 308.651317 196.700839 311.951331 C 196.150837 312.901335 175.550749 303.851296 174.850746 305.051302 C 173.850742 306.751309 190.650813 311.401329 189.450808 313.451337 C 189.050807 314.15134 169.550723 302.151289 169.150722 302.851292 C 168.250718 304.351299 197.850844 317.201353 196.90084 318.85136 C 196.150837 320.101366 168.150717 306.651308 167.450714 307.951314 C 166.750711 309.151319 180.850772 313.95134 180.050768 315.201345 C 179.750767 315.801347 165.600707 307.551312 165.250705 308.201315 C 164.650703 309.201319 179.250765 314.201341 178.350761 315.751347 C 178.250761 315.951348 173.950742 313.001335 173.800742 313.201336 C 172.950738 314.651343 178.800763 313.901339 177.850759 315.551346 C 177.550758 316.051348 160.250684 308.451316 159.750682 309.251319 C 159.45068 309.851322 168.350718 312.851335 167.750716 313.851339 C 167.550715 314.251341 161.900691 315.451346 161.75069 315.701347 C 161.600689 315.951348 168.450719 319.401363 168.400719 319.551363 " transform="matrix(0.0781247,0,0,0.0781247,0,0)"/>
<path style="fill:none;stroke-width:1.28;stroke-linecap:round;stroke-linejoin:round;stroke:rgb(60%,60%,60%);stroke-opacity:1;stroke-miterlimit:4;" d="M 389.251661 82.800353 C 385.851646 88.650378 468.001997 124.450531 466.35199 127.350543 C 464.451982 130.550557 413.251763 96.450412 411.251755 99.950426 C 408.451743 104.750447 473.35202 128.95055 470.402007 134.150572 C 469.402003 135.85058 427.851826 110.400471 426.401819 112.850481 C 425.051814 115.050491 467.551995 133.350569 466.151989 135.85058 C 465.151985 137.550587 436.701863 123.500527 436.201861 124.350531 C 434.551854 127.250543 472.752017 140.950601 470.752009 144.350616 C 469.752004 146.050623 431.20184 118.650506 429.751834 121.050516 C 427.551824 124.950533 483.252062 149.150636 482.052057 151.250645 C 481.352054 152.550651 441.551884 129.250551 440.851881 130.550557 C 439.151874 133.450569 474.952026 147.850631 473.952022 149.650639 C 472.952018 151.350646 434.351853 124.600532 433.001847 127.000542 C 432.001843 128.750549 485.852073 155.250662 484.852069 156.95067 C 483.102061 159.950682 437.301866 130.550557 435.451858 133.65057 C 434.251853 135.800579 485.20207 157.850673 483.252062 161.250688 C 482.252058 162.900695 438.35187 132.850567 436.751863 135.650579 C 435.151857 138.450591 484.952069 158.750677 482.85206 162.250692 C 481.952056 163.850699 446.351904 138.550591 444.851898 141.200602 C 443.851894 143.00061 478.002039 157.300671 476.652034 159.600681 C 475.75203 161.150688 443.651893 143.750613 442.95189 145.100619 C 441.251883 147.950631 487.052078 166.650711 485.352071 169.550723 C 484.552067 170.950729 454.351939 154.70066 453.251934 156.650668 C 451.851928 159.050679 480.152049 170.050726 479.252045 171.650732 C 478.852043 172.350735 464.651983 166.950712 464.15198 167.850716 C 462.451973 170.750729 492.552102 181.250773 491.252096 183.450783 C 490.852094 184.250786 465.801987 169.650724 464.851983 171.250731 C 463.151976 174.250743 483.752064 178.550762 482.152057 181.250773 C 481.802056 181.950776 469.002001 177.500757 468.752 177.900759 C 467.051993 180.850772 493.252105 190.000811 492.352101 191.550817 C 491.152096 193.650826 459.751962 176.050751 459.151959 177.050755 C 457.851954 179.350765 487.40208 190.850814 486.302075 192.750822 C 485.20207 194.650831 460.951967 177.000755 460.101963 178.450761 C 459.35196 179.750767 491.352096 194.750831 490.552093 196.050836 C 490.052091 196.95084 469.152002 183.950785 468.652 184.850789 C 467.951997 186.150794 486.652076 191.550817 485.05207 194.350829 C 484.652068 194.950832 462.951975 185.25079 462.351973 186.350795 C 461.551969 187.6008 502.352143 205.950879 500.802137 208.55089 C 499.952133 210.050896 475.252028 198.450847 474.652025 199.450851 C 473.952022 200.750857 503.302147 213.30091 502.152143 215.350919 C 501.302139 216.750925 471.552012 201.800861 470.552008 203.450868 C 469.202002 205.800878 501.752141 218.750933 500.552136 220.750942 C 499.852133 222.050947 475.85203 209.650895 475.452029 210.400898 C 474.352024 212.350906 503.752149 223.850955 502.552144 226.050964 C 501.55214 227.750972 474.102023 208.050888 473.252019 209.550894 C 472.352015 211.150901 502.752145 223.450953 501.352139 225.850964 C 500.602136 227.150969 477.552038 216.850925 476.752034 218.250931 C 475.452029 220.450941 496.352118 226.750967 495.052112 228.850976 C 494.60211 229.70098 479.752047 223.750955 479.402045 224.400957 C 478.752043 225.600963 502.402144 235.451005 501.45214 237.151012 C 500.852137 238.151016 479.152044 223.450953 478.552042 224.350957 C 477.852039 225.550962 503.95215 237.051011 503.052146 238.501018 C 502.452144 239.501022 473.252019 221.950947 472.552016 223.250953 C 471.302011 225.400962 493.552106 233.600997 492.802103 234.951002 C 492.652102 235.151003 486.302075 234.150999 486.152074 234.401 C 485.552072 235.451005 505.902159 243.001037 504.702153 245.051046 C 504.202151 245.951049 487.302079 236.75101 486.852077 237.551014 C 485.502071 239.851023 498.402127 242.401034 497.602123 243.75104 C 497.252122 244.351043 484.752068 236.251008 484.352067 236.951011 C 483.152061 238.95102 501.65214 244.451043 500.552136 246.351051 C 499.752132 247.751057 474.852026 231.600988 474.052023 233.050994 C 473.35202 234.250999 506.052159 249.351064 505.152155 250.951071 C 504.152151 252.551078 473.45202 234.551001 472.652017 235.851006 C 471.652012 237.551014 505.852158 251.951075 504.552153 254.251085 C 504.152151 254.851087 484.952069 247.901058 484.252066 249.001062 C 483.652064 250.051067 496.552119 253.501082 495.452114 255.45109 C 494.952112 256.151093 481.952056 253.801083 481.652055 254.351085 C 480.752051 255.951092 499.952133 262.901122 499.052129 264.451128 C 498.752128 264.95113 486.252075 256.951096 485.852073 257.651099 C 485.05207 259.051105 495.752115 261.351115 494.852111 262.851121 C 494.652111 263.051122 488.502084 259.251106 488.302083 259.601108 C 487.652081 260.751113 499.452131 264.75113 498.952129 265.751134 C 498.102125 267.20114 477.352037 253.20108 476.702034 254.351085 C 475.75203 256.001092 497.102121 263.551124 495.952116 265.501133 C 495.752115 265.951135 488.202083 265.201132 487.952082 265.551133 C 487.152079 267.051139 500.452135 270.501154 499.452131 272.251162 C 498.602127 273.701168 475.252028 258.251102 474.252023 259.851109 C 473.45202 261.351115 503.85215 274.651172 502.852146 276.351179 C 502.452144 277.051182 489.502089 268.651146 489.052087 269.351149 C 488.052082 271.051156 494.352109 270.501154 493.552106 271.95116 C 493.152104 272.451162 482.552059 271.451158 482.352058 271.85116 C 481.552055 273.151165 493.952108 276.051178 492.852103 277.951186 C 492.752102 278.201187 487.802081 280.451197 487.652081 280.751198 C 486.852077 282.151204 499.452131 285.251217 498.452127 287.001225 C 498.152125 287.451226 483.852064 279.601193 483.252062 280.551197 C 482.402058 282.051203 496.252117 285.95122 495.352114 287.551227 C 494.802111 288.551231 477.952039 282.551206 477.352037 283.55121 C 476.552033 285.001216 502.652145 295.951263 501.65214 297.55127 C 500.602136 299.451278 471.452012 284.351213 470.952009 285.251217 C 470.252006 286.401222 494.652111 297.55127 494.052108 298.601274 C 493.802107 298.951276 484.352067 294.751258 484.052065 295.35126 C 483.252062 296.651266 487.40208 294.851258 486.352075 296.651266 C 485.952073 297.351269 475.002027 293.151251 474.752026 293.551252 C 473.852022 295.151259 490.852094 300.351281 489.75209 302.201289 C 489.252087 303.051293 477.252036 294.551257 476.852035 295.20126 C 476.052031 296.451265 494.45211 303.951297 493.852107 305.051302 C 493.552106 305.501303 485.852073 302.201289 485.702072 302.551291 C 484.702068 304.251298 495.702115 305.751305 494.60211 307.651313 C 494.102108 308.551316 479.952048 305.651304 479.602046 306.301307 C 479.002044 307.301311 494.052108 313.151336 493.352105 314.301341 C 492.852103 315.151345 475.652029 309.651321 475.152027 310.551325 C 474.352024 311.851331 497.752124 321.801373 496.95212 323.151379 C 496.252117 324.351384 478.05204 315.001344 477.652038 315.651347 C 477.002035 316.801352 489.202087 320.751369 488.552084 321.851373 C 488.152083 322.601376 472.052014 314.951344 471.552012 315.851348 C 470.952009 316.851352 491.552097 325.651389 490.852094 326.951395 C 490.252092 327.951399 469.202002 313.851339 468.852 314.551342 C 468.151997 315.801347 487.852082 323.801382 487.052078 325.051387 C 486.602076 325.85139 465.801987 317.251354 465.151985 318.451359 C 464.451982 319.651364 483.352062 326.651394 482.352058 328.401401 C 481.852056 329.201405 468.351998 324.601385 467.951997 325.301388 C 466.851992 327.151396 494.052108 337.951442 492.952103 339.75145 C 491.852099 341.601457 463.601978 327.251396 462.651974 328.951404 C 461.451969 330.951412 491.752098 343.751467 490.902095 345.251473 C 490.052091 346.751479 465.851988 334.601428 465.051984 335.851433 C 464.351981 337.151439 481.452054 343.451465 480.652051 344.851471 C 480.102048 345.801475 467.151993 338.001442 466.651991 338.801446 C 465.651987 340.601453 481.152053 345.151473 480.252049 346.651479 C 479.852047 347.401482 461.051967 339.651449 460.651965 340.251452 C 459.651961 342.10146 482.952061 351.751501 482.352058 352.751505 C 481.902056 353.551508 462.551974 340.451453 461.901971 341.551457 C 461.401969 342.401461 471.352011 345.601475 470.752009 346.651479 C 470.352007 347.251482 459.951962 340.651453 459.551961 341.351456 C 458.951958 342.351461 479.852047 351.851501 479.352045 352.751505 C 478.752043 353.85151 458.601957 343.751467 457.851954 345.001472 C 456.751949 346.85148 476.652034 354.451512 476.052031 355.551517 C 475.902031 355.751518 470.352007 353.351508 470.252006 353.551508 C 469.752004 354.451512 481.152053 358.65153 480.652051 359.551534 C 480.052048 360.601539 461.251968 348.351486 460.851966 348.951489 C 459.851962 350.751497 475.552029 355.751518 474.852026 357.001523 C 474.552025 357.551526 458.551956 351.101498 458.251955 351.6015 C 457.151951 353.551508 477.802039 360.601539 476.802034 362.251546 C 476.352032 363.051549 451.651927 352.251503 450.801923 353.751509 C 450.251921 354.751514 473.152019 364.251554 472.152015 366.051562 C 471.752013 366.651564 460.701966 364.051553 460.451965 364.451555 C 459.951962 365.301559 464.751983 365.451559 464.10198 366.551564 C 463.851979 367.001566 454.75194 363.451551 454.451939 364.001553 C 453.851936 365.001557 471.452012 371.651586 470.552008 373.251593 C 470.152006 373.901595 451.651927 364.601556 450.951924 365.751561 C 450.351922 366.851565 471.952014 375.651603 471.05201 377.35161 C 470.552008 378.251614 454.80194 371.851587 454.451939 372.55159 C 453.351934 374.401597 471.952014 381.201626 471.302011 382.251631 C 470.952009 382.951634 449.751919 374.001596 449.251917 374.851599 C 448.351913 376.301606 472.252015 385.601645 471.15201 387.451653 C 470.852009 387.951655 457.05195 379.051617 456.651948 379.75162 C 455.751945 381.251627 458.501956 379.70162 458.001954 380.551624 C 457.751953 380.951625 449.351917 378.051613 449.051916 378.551615 C 448.151912 380.201622 461.80197 384.35164 461.151968 385.551645 C 460.951967 385.851646 453.151933 385.851646 452.851932 386.251648 C 451.851928 388.101656 462.201972 389.651663 461.351968 391.151669 C 460.951967 391.851672 438.651872 383.001634 438.25187 383.701637 C 437.751868 384.651641 448.951916 388.701658 448.451913 389.551662 C 448.251913 389.901664 438.25187 388.051656 438.001869 388.451657 C 436.951864 390.351666 446.651906 390.901668 445.551901 392.851676 C 445.451901 393.051677 443.451892 398.3517 443.251891 398.751701 C 442.551888 399.851706 446.851907 398.301699 445.751902 400.151707 C 445.551901 400.651709 436.751863 398.051698 436.451862 398.5517 C 435.95186 399.551705 452.651931 405.45173 451.551927 407.251738 C 451.001924 408.251742 423.501807 396.951694 423.001805 397.851698 C 422.051801 399.451704 449.95192 411.551756 449.151916 412.951762 C 448.651914 413.751765 436.201861 405.851732 435.751859 406.551735 C 435.151857 407.651739 438.151869 405.651731 437.151865 407.351738 C 436.951864 407.651739 431.751842 403.851723 431.551841 404.151724 C 431.001839 405.101728 448.651914 412.55176 448.001911 413.651765 C 447.65191 414.201767 432.451845 410.15175 431.901843 411.151754 C 430.951839 412.751761 435.90186 411.851757 435.151857 413.051762 " transform="matrix(0.0781247,0,0,0.0781247,0,0)"/>
<path style="fill:none;stroke-width:1.28;stroke-linecap:round;stroke-linejoin:round;stroke:rgb(60%,60%,60%);stroke-opacity:1;stroke-miterlimit:4;" d="M 365.951561 352.251503 C 365.951561 352.351503 369.601577 354.351512 369.551577 354.351512 C 369.551577 354.401512 368.651573 356.651522 368.651573 356.751522 C 368.451572 357.001523 372.65159 358.55153 372.451589 358.951532 C 372.251588 359.251533 377.051609 364.601556 376.851608 365.051558 C 376.451606 365.65156 384.601641 368.151571 384.001638 369.151575 C 383.451636 370.051579 366.651564 362.551547 366.251563 363.25155 C 365.801561 364.051553 381.551628 371.001583 381.001626 371.801586 C 380.951625 371.951587 376.451606 371.451585 376.351606 371.751586 C 375.151601 373.751595 393.951681 380.051622 393.151677 381.451628 C 392.751676 382.201631 380.451623 380.251622 380.251622 380.651624 C 378.851616 383.051634 404.851727 390.751667 403.05172 393.80168 C 402.051715 395.451687 372.251588 380.751625 371.151584 382.651633 C 368.451572 387.251652 432.451845 413.451764 430.451837 416.951779 C 429.351832 418.951788 367.451568 380.651624 365.951561 383.251635 C 363.401551 387.701654 439.151874 419.651791 436.601863 424.001809 C 434.601854 427.451824 384.051639 396.351691 382.251631 399.601705 C 380.351623 402.851719 438.451871 428.95183 437.151865 431.25184 C 436.151861 432.951847 401.351712 413.351764 400.451709 414.85177 C 399.651705 416.251776 433.351849 431.051839 432.201844 433.151848 C 431.751842 433.851851 408.801744 424.001809 408.401743 424.701812 C 407.70174 425.901817 425.251814 432.551846 424.401811 433.951852 C 423.901809 434.851855 407.951741 429.251831 407.401738 430.101835 C 406.801736 431.101839 414.451768 432.051843 413.551764 433.65185 C 413.251763 434.051852 406.351734 431.15184 406.251733 431.401841 C 405.151729 433.251849 414.651769 433.751851 413.551764 435.651859 C 413.251763 436.251861 402.551718 433.751851 402.201716 434.451854 C 401.201712 436.151861 422.451802 443.451892 421.201797 445.451901 C 420.001792 447.451909 388.101656 429.351832 387.501653 430.451837 C 386.65165 431.851843 417.651782 446.651906 417.15178 447.55191 C 416.051775 449.451918 387.251652 430.101835 386.551649 431.25184 C 386.001647 432.251844 403.651722 438.451871 402.551718 440.451879 C 402.251716 441.051882 385.151643 434.851855 384.901642 435.351858 C 384.051639 436.751863 410.451751 448.051912 409.551747 449.551918 C 408.951745 450.551922 388.101656 442.451888 387.651654 443.251891 C 386.451649 445.2519 410.751753 454.101938 409.651748 455.951945 C 408.951745 457.10195 385.551645 447.151908 384.851642 448.451913 C 384.051639 449.801919 389.951664 450.201921 389.451662 451.151925 C 388.851659 452.051929 369.001574 444.401896 368.651573 445.001899 C 367.85157 446.401905 393.551679 456.551948 392.351674 458.651957 C 391.651671 459.801962 367.151567 443.451892 366.451564 444.551897 C 365.951561 445.501901 395.151686 459.251959 394.351683 460.651965 C 393.501679 462.051971 371.251584 446.451905 370.35158 448.051912 C 369.401576 449.651919 394.401683 459.601961 393.351678 461.351968 C 392.951677 462.151972 379.051617 453.201934 378.601615 453.951937 C 377.951613 455.151942 384.851642 455.951945 384.151639 457.151951 C 384.051639 457.351951 378.451615 454.951941 378.301614 455.151942 C 377.35161 456.801949 382.601632 455.651944 381.751629 457.151951 C 381.551628 457.551952 373.001591 452.151929 372.75159 452.751932 C 371.851587 454.251938 385.051643 457.05195 383.851638 459.151959 C 383.201635 460.301964 366.751565 450.451922 366.151562 451.551927 C 365.251558 453.001933 389.00166 462.451973 388.001655 464.251981 C 387.551654 465.051984 370.651581 453.651936 370.151579 454.451939 C 369.001574 456.451948 387.351653 462.951975 386.75165 464.05198 C 386.251648 464.851983 364.951557 450.551922 364.351555 451.651927 C 363.151549 453.751936 387.751654 463.651978 387.151652 464.751983 C 386.351648 466.051988 364.551555 455.551944 364.051553 456.451948 C 362.951549 458.351956 378.951617 463.051976 378.101613 464.601982 C 377.751612 465.151985 365.751561 460.051963 365.501559 460.451965 C 364.251554 462.601974 381.751629 467.551995 380.751625 469.252002 C 380.451623 469.802004 362.151545 463.251977 361.851544 463.801979 C 361.251541 464.801983 368.951574 464.951984 367.651569 467.151993 C 367.251567 467.851996 348.551487 460.801966 347.951485 461.851971 C 347.351482 462.851975 365.051558 469.952005 364.251554 471.252011 C 363.751552 472.152015 342.501461 461.251968 342.051459 462.101972 C 341.051455 463.751979 362.851548 472.152015 362.051545 473.652021 C 361.751543 474.152023 343.701466 468.752 343.351465 469.402003 C 342.651462 470.552008 352.201503 472.502016 351.351499 474.052023 C 350.851497 474.752026 337.701441 468.652 337.45144 469.152002 C 336.551436 470.652008 360.601539 480.202049 359.601534 481.952056 C 358.60153 483.652064 326.451393 466.951992 325.651389 468.351998 C 324.451384 470.352007 350.951497 480.002048 349.651492 482.202057 C 349.25149 482.952061 324.151383 471.352011 323.651381 472.202015 C 322.951378 473.40202 351.951502 486.452076 351.051498 488.052082 C 349.751492 490.152091 319.051361 467.851996 318.251358 469.202002 C 317.051353 471.252011 349.101489 485.20207 348.351486 486.552076 C 347.451482 488.152083 322.951378 474.702025 322.051374 476.152032 C 321.00137 478.05204 340.151451 483.352062 338.751445 485.802073 C 338.151443 486.802077 309.501321 474.352024 308.751317 475.652029 C 307.951314 477.002035 340.851454 491.252096 339.601449 493.452105 C 339.051447 494.45211 307.751313 473.902022 306.551308 475.952031 C 305.051302 478.502042 332.951421 487.852082 331.551415 490.352092 C 330.951412 491.352096 304.851301 478.15204 303.851296 479.952048 C 302.851292 481.652055 326.351392 491.252096 325.601389 492.452101 C 325.101387 493.352105 297.351269 474.352024 296.501265 475.85203 C 295.651261 477.302036 323.251379 487.652081 321.701373 490.352092 C 321.00137 491.652098 295.801262 474.552025 294.701257 476.352032 C 293.751253 478.05204 315.551346 485.15207 314.15134 487.60208 C 313.301337 489.052087 291.101242 480.252049 290.65124 480.952052 C 289.901237 482.252058 308.751317 488.452084 307.451312 490.652093 C 306.801309 491.752098 287.551227 478.502042 287.051225 479.352045 C 285.651219 481.752055 319.901365 495.752115 318.80136 497.652123 C 317.451354 499.952133 280.551197 478.502042 279.751194 479.952048 C 278.651189 481.852056 312.851335 496.052116 311.551329 498.352126 C 310.151323 500.752137 274.801172 481.052052 273.851168 482.70206 C 272.151161 485.702072 306.201306 498.852128 305.101302 500.752137 C 304.451299 501.952142 266.751138 477.102036 265.201132 479.752047 C 264.051127 481.752055 304.851301 499.902133 303.651296 501.952142 C 302.551291 503.752149 256.251093 473.55202 255.001088 475.652029 C 254.001084 477.452037 299.151276 498.052125 297.851271 500.352135 C 296.051263 503.452148 251.751074 478.20204 250.70107 479.952048 C 249.151063 482.552059 290.751241 499.002129 289.001233 502.002142 C 287.051225 505.352156 240.601027 474.952026 238.801019 478.002039 C 237.451013 480.252049 281.101199 498.602127 279.451192 501.45214 C 277.951186 504.052151 234.951002 475.80203 233.250995 478.752043 C 231.450988 481.952056 275.451175 498.552127 273.451167 501.952142 C 271.551159 505.352156 211.0009 467.551995 208.70089 471.452012 C 206.550881 475.152027 261.851117 497.702124 259.901109 501.052138 C 258.751104 503.052146 213.600911 473.302019 212.100905 475.85203 C 210.600899 478.452041 258.451103 497.202121 256.101093 501.252139 C 254.151084 504.652153 179.500766 458.951958 177.250756 462.951975 C 175.150747 466.50199 242.951037 493.452105 239.751023 499.002129 C 237.501013 502.852146 165.350705 449.95192 162.650694 454.65194 C 160.750686 457.851954 243.251038 494.45211 240.351025 499.552131 C 237.751014 504.052151 168.950721 452.851932 166.250709 457.551952 C 163.800699 461.80197 249.251063 496.752119 245.501047 503.252147 " transform="matrix(0.0781247,0,0,0.0781247,0,0)"/>
<path style="fill:none;stroke-width:1.28;stroke-linecap:round;stroke-linejoin:round;stroke:rgb(60%,60%,60%);stroke-opacity:1;stroke-miterlimit:4;" d="M 105.200449 118.650506 C 103.700442 121.250517 168.450719 150.750643 166.50071 154.050657 C 164.850703 156.95067 106.350454 117.750502 105.150449 119.950512 C 103.15044 123.500527 176.150752 154.550659 173.35074 159.35068 C 172.150735 161.450689 109.950469 122.850524 108.700464 125.050534 C 106.700455 128.550548 179.650767 160.750686 177.400757 164.750703 C 175.75075 167.550715 114.650489 126.050538 112.40048 130.100555 C 109.750468 134.650575 176.150752 161.950691 174.000742 165.650707 C 173.200739 167.050713 136.150581 145.450621 134.750575 147.850631 C 132.350565 152.050649 184.750788 172.000734 182.75078 175.550749 C 181.250773 178.10076 143.650613 154.100657 142.95061 155.450663 C 141.150602 158.450676 178.400761 171.350731 176.450753 174.750746 C 175.450749 176.550753 149.250637 164.1507 148.750635 164.950704 C 147.75063 166.750711 174.550745 176.950755 173.35074 179.150764 C 173.150739 179.450766 164.0507 174.950746 163.750699 175.450749 C 163.100696 176.650754 175.250748 180.100768 174.350744 181.600775 C 174.000742 182.250778 161.450689 178.550762 161.050687 179.300765 C 160.850686 179.650767 169.350723 183.700784 169.150722 184.000785 C 168.950721 184.350787 163.450697 181.250773 163.250697 181.550775 C 163.250697 181.550775 167.600715 183.950785 167.550715 184.000785 " transform="matrix(0.0781247,0,0,0.0781247,0,0)"/>
<path style="fill:none;stroke-width:1.28;stroke-linecap:round;stroke-linejoin:round;stroke:rgb(60%,60%,60%);stroke-opacity:1;stroke-miterlimit:4;" d="M 372.501589 36.200154 C 372.201588 36.750157 388.551658 44.650191 388.201656 45.250193 C 386.75165 47.850204 344.60147 24.950106 343.651466 26.650114 C 340.401452 32.250138 413.151763 61.550263 410.851753 65.450279 C 407.85174 70.550301 337.151439 21.10009 335.25143 24.350104 C 331.851416 30.250129 427.951826 71.850307 425.351815 76.350326 C 423.251806 80.000341 320.651368 11.850051 318.251358 16.000068 C 315.151345 21.350091 441.851885 76.900328 437.351866 84.750362 C 434.951856 89.00038 315.151345 9.950042 310.151323 18.450079 C 305.451303 26.750114 451.251925 88.450377 446.351904 97.050414 C 440.951881 106.450454 297.65127 10.450045 294.551257 15.850068 C 289.551235 24.550105 463.051976 101.700434 458.051954 110.300471 C 453.851936 117.600502 280.001195 2.950013 275.851177 10.050043 C 271.351158 17.950077 465.851988 110.350471 461.851971 117.450501 C 457.00195 125.750537 288.451231 10.250044 285.351217 15.750067 C 278.401188 27.750118 467.751996 108.450463 462.351973 117.850503 C 456.95195 127.250543 274.851173 -3.650016 267.401141 9.200039 C 259.651108 22.600096 469.352003 117.050499 465.551986 123.600527 C 458.651957 135.550578 273.551167 0.450002 266.151136 13.350057 C 264.451128 16.250069 329.951408 43.350185 326.951395 48.450207 C 325.101387 51.750221 253.451081 6.850029 251.151072 10.750046 C 249.301064 13.95006 313.051336 40.150171 310.351324 44.850191 C 308.801318 47.550203 241.551031 8.500036 240.151025 10.950047 C 238.751019 13.350057 289.451235 34.950149 287.551227 38.250163 C 285.90122 41.050175 238.701018 10.550045 237.401013 12.850055 C 235.401004 16.250069 281.2512 33.950145 279.451192 37.100158 C 278.451188 38.850166 236.901011 11.550049 235.301004 14.300061 C 233.950998 16.650071 278.95119 36.250155 277.551184 38.650165 C 276.65118 40.200172 226.400966 11.450049 225.450962 13.150056 C 223.950956 15.700067 266.401137 32.650139 264.601129 35.750153 C 263.451124 37.650161 231.400987 16.30007 230.400983 18.050077 C 228.400975 21.450092 269.201149 35.750153 267.20114 39.250167 C 265.751134 41.750178 212.650907 9.550041 210.800899 12.750054 C 209.600894 14.850063 248.051058 31.200133 246.751053 33.450143 C 246.15105 34.450147 217.450928 16.550071 216.850925 17.550075 C 215.150918 20.550088 255.45109 36.850157 254.151084 39.100167 C 252.851079 41.350176 207.400885 10.750046 205.500877 14.00006 C 204.650873 15.450066 242.301034 32.80014 241.251029 34.650148 C 240.451026 36.050154 211.250901 21.15009 210.350897 22.750097 C 208.60089 25.75011 238.351017 35.350151 236.75101 38.050162 C 236.001007 39.400168 197.250842 16.700071 195.950836 19.000081 C 194.950832 20.750089 227.200969 35.25015 226.450966 36.600156 C 225.850964 37.60016 201.55086 22.850097 200.600856 24.450104 C 199.15085 26.950115 221.050943 33.450143 219.850938 35.550152 C 219.250935 36.550156 197.750844 23.750101 197.050841 24.950106 C 196.150837 26.450113 212.050905 30.000128 210.550898 32.650139 C 209.750895 33.950145 190.750814 25.650109 190.250812 26.550113 C 188.650805 29.250125 214.850917 37.45016 213.450911 39.90017 C 212.950909 40.750174 188.650805 24.300104 187.950802 25.650109 C 187.150799 26.950115 210.550898 35.15015 209.050892 37.800161 C 208.250889 39.100167 170.050726 20.550088 169.250722 21.950094 C 167.850716 24.400104 200.350855 37.750161 199.450851 39.350168 C 198.450847 40.950175 175.75075 28.15012 175.000747 29.450126 C 173.600741 31.850136 197.250842 38.950166 195.750835 41.450177 C 194.55083 43.550186 165.000704 23.000098 163.800699 25.200108 C 162.600694 27.350117 189.80081 37.200159 188.500804 39.450168 C 188.150803 40.050171 174.150743 32.75014 173.900742 33.250142 C 173.100739 34.650148 187.150799 37.950162 185.900793 40.150171 C 185.500791 40.850174 175.250748 33.850144 175.050747 34.300146 C 174.150743 35.750153 196.350838 44.350189 195.350833 46.050196 C 194.150828 48.150205 163.450697 29.850127 162.250692 31.950136 C 161.050687 34.050145 189.650809 44.45019 188.250803 46.9502 C 187.350799 48.450207 155.950665 29.800127 155.050662 31.350134 C 154.400659 32.500139 176.450753 40.800174 175.150747 43.000183 C 174.550745 44.150188 154.65066 35.650152 154.250658 36.450156 C 153.350654 37.950162 174.800746 45.950196 173.800742 47.750204 C 173.050738 49.050209 146.550625 35.650152 145.550621 37.350159 C 144.650617 38.850166 163.350697 45.850196 162.550694 47.150201 C 162.050691 48.050205 146.550625 37.250159 146.150624 37.950162 C 145.25062 39.550169 172.000734 50.450215 171.00073 52.250223 C 170.150726 53.750229 142.000606 35.400151 141.000602 37.250159 C 140.000597 39.050167 165.700707 49.400211 164.800703 50.950217 C 164.1507 52.000222 138.20059 39.000166 137.550587 40.150171 C 136.850584 41.300176 169.200722 56.550241 168.400719 58.000247 C 167.550715 59.450254 144.400616 48.250206 143.750613 49.400211 C 143.150611 50.550216 148.450633 50.250214 147.65063 51.65022 C 147.350629 52.150223 131.000559 43.650186 130.550557 44.350189 C 129.450552 46.250197 158.250675 58.050248 157.250671 59.750255 C 156.650668 60.85026 134.450574 50.550216 134.050572 51.350219 C 133.200568 52.700225 147.100628 57.050243 146.350624 58.450249 C 145.700622 59.550254 124.900533 51.65022 124.450531 52.450224 C 123.200526 54.650233 138.35059 58.950252 137.700588 60.050256 C 137.300586 60.750259 122.850524 55.450237 122.450522 56.15024 C 121.85052 57.150244 139.450595 63.650272 138.450591 65.400279 C 137.850588 66.350283 123.850528 59.150252 123.450527 59.850255 C 122.650523 61.300262 131.15056 61.950264 130.150555 63.750272 C 129.650553 64.550275 114.000486 60.150257 113.600485 60.85026 C 112.40048 62.950269 127.200543 67.350287 126.60054 68.350292 C 126.200538 69.050295 108.550463 59.550254 108.150461 60.200257 C 107.150457 61.950264 125.550536 68.450292 124.800532 69.800298 C 124.350531 70.650301 103.800443 59.450254 102.950439 60.85026 C 102.150436 62.250266 122.850524 70.3503 121.95052 71.850307 C 121.350518 73.050312 103.500442 60.450258 103.10044 61.150261 C 102.100436 62.950269 127.350543 72.450309 126.250539 74.450318 C 125.900537 75.05032 109.950469 67.150287 109.650468 67.650289 C 108.450463 69.650297 120.450514 71.900307 119.650511 73.450313 C 119.350509 73.950316 107.75046 67.050286 107.250458 67.850289 C 106.450454 69.350296 119.750511 73.550314 119.100508 74.650319 C 118.750507 75.350321 108.050461 73.250313 107.85046 73.550314 C 107.150457 74.750319 121.85052 78.950337 120.650515 81.000346 C 120.050512 82.150351 101.650434 75.850324 101.300432 76.550327 C 100.200428 78.450335 107.200457 78.250334 106.450454 79.550339 C 106.450454 79.550339 105.050448 79.250338 105.050448 79.250338 C 104.350445 80.550344 114.350488 83.050354 113.650485 84.250359 C 113.050482 85.250364 90.850388 73.950316 90.200385 75.05032 C 89.200381 76.750327 103.650442 81.050346 102.900439 82.400352 C 102.650438 82.850353 88.150376 78.250334 87.850375 78.850336 C 87.100372 80.150342 98.750421 82.650353 97.650417 84.550361 C 97.500416 84.850362 90.950388 82.900354 90.750387 83.200355 C 90.250385 84.050359 103.550442 88.350377 102.550438 90.050384 C 102.350437 90.450386 92.450394 87.250372 92.150393 87.650374 C 90.750387 90.150385 103.15044 91.40039 102.050435 93.350398 C 101.750434 93.8504 92.350394 88.800379 92.050393 89.350381 C 90.950388 91.250389 110.25047 96.750413 108.950465 99.150423 C 108.000461 100.550429 79.70034 87.450373 79.000337 88.600378 C 77.650331 90.950388 130.450557 113.450484 128.350548 117.050499 C 127.150543 119.050508 82.750353 92.250394 81.450348 94.450403 C 80.000341 97.000414 136.450582 119.750511 133.70057 124.550531 C 132.500565 126.60054 81.550348 97.950418 80.150342 100.400428 C 78.150333 103.750443 153.550655 137.450586 151.250645 141.350603 C 149.550638 144.350616 68.250291 90.550386 65.65028 94.850405 C 63.25027 99.050423 171.950734 147.350629 168.050717 154.000657 C 166.50071 156.750669 81.350347 98.850422 77.750332 105.050448 C 76.750327 106.850456 83.050354 105.950452 82.10035 107.550459 C 81.750349 108.150461 65.900281 104.350445 65.65028 104.750447 C 64.550275 106.700455 76.750327 109.850469 76.150325 110.850473 C 75.750323 111.550476 61.850264 103.05044 61.450262 103.850443 C 60.450258 105.55045 85.350364 115.050491 84.250359 116.950499 C 83.450356 118.250505 63.750272 105.850452 63.050269 106.950456 C 62.000265 108.850464 73.000311 110.950473 72.250308 112.250479 C 72.000307 112.700481 64.650276 113.150483 64.450275 113.550484 C 63.550271 115.050491 81.100346 120.850516 80.050342 122.550523 C 79.350339 123.850528 53.750229 111.550476 52.950226 112.950482 C 51.850221 114.75049 72.150308 122.350522 71.450305 123.600527 C 71.200304 124.000529 64.750276 121.400518 64.550275 121.750519 C 63.450271 123.650528 72.150308 123.750528 71.150304 125.550536 C 70.650301 126.300539 53.650229 116.550497 53.150227 117.550502 C 52.150223 119.250509 66.250283 123.050525 65.350279 124.550531 C 65.150278 124.950533 60.95026 128.550548 60.85026 128.750549 C 60.000256 130.200556 63.35027 128.650549 62.650267 129.850554 C 62.450266 130.250556 54.550233 130.750558 54.300232 131.15056 C 53.750229 132.150564 58.050248 131.850563 57.400245 132.950567 C 57.250244 133.250569 52.300223 134.550574 52.150223 134.750575 C 51.350219 136.150581 66.950286 141.050602 65.950281 142.750609 C 65.350279 143.750613 43.950188 131.20056 43.250185 132.300564 C 42.550182 133.55057 56.750242 138.150589 55.950239 139.600596 C 55.450237 140.350599 43.550186 136.700583 43.350185 137.100585 C 42.350181 138.750592 54.250231 141.350603 53.350228 142.850609 C 53.050226 143.400612 44.950192 140.6006 44.750191 140.950601 C 43.850187 142.600608 51.250219 142.95061 50.450215 144.250615 C 50.350215 144.450616 49.950213 148.650634 49.850213 148.850635 C 48.850208 150.650643 60.150257 153.250654 59.450254 154.450659 C 59.150252 154.950661 46.000196 148.150632 45.550194 148.950636 C 44.55019 150.550642 49.20021 149.650639 48.650208 150.650643 C 48.250206 151.250645 31.850136 143.450612 31.350134 144.400616 C 30.55013 145.750622 52.650225 154.75066 51.800221 156.250667 C 51.65022 156.450668 42.450181 154.350659 42.25018 154.75066 C 41.150176 156.650668 55.950239 161.200688 55.350236 162.300692 C 54.550233 163.650698 34.050145 150.450642 33.550143 151.350646 C 32.550139 153.100653 52.950226 161.150688 52.350223 162.250692 C 52.050222 162.750694 43.550186 161.900691 43.350185 162.350693 C 42.550182 163.750699 57.150244 169.050721 56.550241 169.950725 C 56.050239 170.950729 35.350151 158.550676 34.700148 159.650681 C 33.600143 161.550689 42.350181 162.150692 41.550177 163.650698 C 41.350176 163.850699 34.350147 164.0507 34.150146 164.450702 C 33.150141 166.250709 50.850217 171.650732 49.800212 173.45074 C 49.050209 174.650745 24.600105 162.050691 24.100103 162.950695 C 23.4501 163.9507 45.200193 172.600736 44.100188 174.450744 C 43.850187 175.000747 34.000145 171.650732 33.750144 172.000734 C 32.950141 173.35074 40.400172 174.250743 39.75017 175.450749 C 39.150167 176.450753 22.250095 170.350727 21.650092 171.450732 C 21.00009 172.550736 46.650199 184.550787 46.050196 185.550792 C 45.750195 186.050794 31.450134 177.550758 30.950132 178.550762 C 30.40013 179.450766 37.850161 181.250773 37.250159 182.200777 C 36.950158 182.85078 21.00009 178.800763 20.700088 179.350765 C 19.750084 180.950772 46.550199 191.650818 45.400194 193.600826 C 44.950192 194.350829 20.650088 183.050781 20.100086 183.950785 C 19.350083 185.25079 39.95017 192.850823 38.850166 194.750831 C 38.550164 195.300833 28.20012 187.850801 27.750118 188.650805 C 27.000115 189.95081 41.600177 194.55083 40.650173 196.050836 C 40.150171 196.95084 26.550113 190.150811 26.050111 191.050815 C 25.200108 192.550822 34.750148 193.950828 33.850144 195.550834 C 33.550143 196.050836 21.550092 189.550809 21.300091 190.000811 C 20.400087 191.550817 36.300155 197.400842 35.750153 198.350846 C 35.550152 198.700848 28.550122 195.650835 28.250121 196.050836 C 27.150116 197.950845 30.45013 195.450834 29.650127 196.85084 C 29.350125 197.350842 16.850072 195.050832 16.650071 195.450834 C 15.500066 197.450842 29.950128 200.950857 29.000124 202.600864 C 29.000124 202.650865 27.900119 203.200867 27.850119 203.250867 C 27.250116 204.350872 33.650144 204.250871 32.650139 206.000879 C 32.450138 206.25088 25.150107 203.85087 24.950106 204.150871 C 24.050103 205.750878 31.300134 205.350876 30.250129 207.150884 C 29.950128 207.650886 18.250078 206.450881 18.050077 206.850883 C 17.550075 207.750886 33.150141 212.950909 32.050137 214.850917 C 31.650135 215.55092 11.050047 208.050888 10.700046 208.70089 C 9.950042 209.950896 33.950145 220.850942 33.400143 221.800946 C 33.150141 222.300948 24.900106 222.250948 24.750106 222.55095 C 23.650101 224.450958 32.550139 225.750963 31.950136 226.750967 C 31.650135 227.25097 14.450062 220.450941 14.10006 221.050943 C 13.350057 222.350949 29.650127 228.400975 28.950124 229.65098 C 28.600122 230.250982 11.550049 221.650946 11.250048 222.150948 C 10.350044 223.700954 27.600118 229.950981 26.850115 231.150986 C 26.800114 231.350987 23.000098 230.800985 22.850097 230.950985 C 22.250095 232.150991 27.650118 232.250991 27.050115 233.350996 C 26.750114 233.850998 19.950085 229.250978 19.650084 229.75098 C 18.500079 231.750989 36.850157 237.451013 35.900153 239.15102 C 35.300151 240.201025 18.600079 234.951002 17.950077 236.051007 C 17.350074 237.151012 30.050128 241.601031 29.450126 242.651035 C 29.250125 243.001037 17.950077 242.301034 17.800076 242.651035 C 16.750071 244.301042 37.850161 253.001079 37.300159 254.001084 C 36.750157 255.001088 16.650071 242.451034 15.850068 243.85104 C 15.150065 245.051046 34.450147 252.201076 33.450143 253.951084 C 33.000141 254.751087 20.650088 251.051071 20.350087 251.551073 C 19.750084 252.551078 24.750106 252.151076 23.900102 253.551082 C 23.5501 254.051084 12.550054 246.551052 12.250052 247.051054 C 11.050047 249.051063 36.050154 258.001101 34.800148 260.05111 C 34.200146 261.151114 10.450045 249.501065 10.050043 250.251068 C 9.150039 251.851075 30.150129 260.601112 29.600126 261.551116 C 29.250125 262.201119 17.100073 258.951105 16.900072 259.351107 C 15.650067 261.551116 24.550105 261.451116 23.5501 263.151123 C 23.3501 263.551124 12.550054 257.151097 12.150052 257.8011 C 11.350048 259.201106 37.950162 270.451154 37.000158 272.151161 C 36.150154 273.601167 9.000038 260.05111 8.250035 261.351115 C 6.95003 263.551124 30.650131 271.151157 29.250125 273.451167 C 28.650122 274.451171 8.350036 261.151114 7.750033 262.151119 C 6.800029 263.801126 37.50016 276.45118 36.250155 278.651189 C 35.650152 279.751194 16.45007 270.351153 15.750067 271.551159 C 14.850063 273.051165 28.05012 275.801177 26.850115 277.951186 C 26.550113 278.451188 17.100073 277.401184 16.850072 277.901186 C 15.550066 280.051195 35.300151 286.401222 34.350147 288.051229 C 33.900145 288.851232 16.35007 282.351205 15.850068 283.101208 C 14.950064 284.751215 39.75017 295.151259 39.000166 296.451265 C 38.050162 298.051272 12.650054 281.1512 11.65005 282.851207 C 11.000047 284.051212 39.250167 296.351264 38.200163 298.151272 C 37.45016 299.551278 13.300057 288.151229 12.500053 289.551235 C 11.65005 291.001242 35.450151 299.751279 34.150146 302.051289 C 33.800144 302.651291 18.450079 292.95125 17.900076 293.851254 C 16.600071 296.151264 43.650186 305.951305 42.450181 308.051314 C 41.300176 310.151323 13.400057 290.051238 12.250052 292.051246 C 10.800046 294.551257 32.70014 301.251285 31.550135 303.251294 C 31.050132 304.151298 14.650063 294.051255 14.200061 294.801258 C 13.300057 296.351264 46.050196 310.351324 44.850191 312.451333 C 43.950188 314.00134 22.500096 299.351277 21.600092 300.901284 C 20.350087 303.051293 32.600139 305.451303 31.850136 306.851309 C 31.600135 307.251311 17.650075 301.951288 17.250074 302.651291 C 16.35007 304.301298 41.450177 314.951344 40.750174 316.201349 C 39.75017 317.851356 15.050064 303.201294 14.250061 304.6013 C 13.450057 305.951305 37.650161 315.601347 36.550156 317.451354 C 36.050154 318.351358 15.450066 305.851305 15.050064 306.551308 C 13.95006 308.451316 44.950192 321.551372 43.950188 323.251379 C 42.950183 324.951386 10.150043 301.851288 9.000038 303.851296 C 8.050034 305.451303 45.650195 321.751373 44.250189 324.151383 C 43.450185 325.551389 15.350065 306.651308 14.400061 308.351316 C 13.600058 309.751322 50.000213 326.101391 48.800208 328.1514 C 48.350206 328.951404 24.150103 316.35135 23.3501 317.751356 C 22.350095 319.401363 48.850208 330.051408 47.800204 331.851416 C 47.350202 332.75142 24.800106 322.351375 24.150103 323.651381 C 22.550096 326.401393 45.650195 332.651419 44.150188 335.15143 C 43.450185 336.401435 22.350095 324.751386 21.800093 325.75139 C 20.550088 327.951399 56.35024 343.951468 55.650237 345.251473 C 54.750234 346.85148 20.150086 328.801403 18.950081 330.951412 C 17.350074 333.701424 61.950264 351.751501 60.200257 354.751514 C 59.250253 356.35152 28.05012 339.051447 27.050115 340.751454 C 25.85011 342.801463 61.05026 357.851527 59.950256 359.751535 C 59.250253 360.85154 21.750093 339.601449 21.05009 340.851454 C 20.050086 342.551462 67.750289 365.751561 66.850285 367.251567 C 65.65028 369.401576 26.750114 347.251482 25.450109 349.551491 C 24.150103 351.751501 60.050256 366.451564 58.750251 368.751573 C 57.850247 370.35158 33.500143 356.001519 32.550139 357.601526 C 31.250133 359.951536 75.650323 378.251614 73.800315 381.401627 C 72.850311 383.051634 39.650169 360.401538 39.000166 361.451542 C 37.900162 363.35155 78.150333 380.001621 76.350326 383.001634 C 74.95032 385.451645 31.850136 357.351525 31.000132 358.851531 C 29.850127 360.85154 82.550352 386.251648 81.550348 388.051656 C 80.400343 390.051664 39.250167 367.451568 37.950162 369.601577 C 35.850153 373.251593 80.450343 390.851668 79.050337 393.301678 C 78.200334 394.851685 42.850183 371.601586 41.900179 373.151592 C 39.75017 376.851608 85.250364 392.451674 82.750353 396.751693 C 82.00035 398.001698 41.950179 375.951604 40.950175 377.651611 C 39.250167 380.551624 103.450441 407.251738 100.650429 412.051758 C 98.950422 415.051771 38.850166 374.551598 36.550156 378.651616 C 34.900149 381.451628 111.550476 417.551782 109.550467 420.851796 C 107.050457 425.151814 41.650178 380.401623 39.650169 383.851638 C 36.250155 389.751663 123.450527 426.951822 121.150517 430.851838 C 118.500506 435.401858 51.45022 389.15166 49.900213 391.851672 C 46.000196 398.651701 249.451064 494.652111 244.001041 504.00215 C 236.551009 516.952206 57.500245 386.251648 52.000222 395.851689 C 46.500198 405.45173 238.95102 487.952082 232.05099 499.852133 C 226.050964 510.352178 54.500233 386.951651 49.900213 394.951685 C 42.350181 407.951741 233.450996 491.652098 229.450979 498.602127 C 224.200957 507.602166 52.450224 381.001626 45.600195 392.851676 C 41.550177 399.851706 245.901049 494.202109 239.751023 504.852154 C 233.350996 515.952201 63.750272 390.851668 57.750246 401.251712 C 50.050214 414.551769 238.301017 494.052108 233.350996 502.602144 C 228.600975 510.90218 60.650259 400.651709 56.750242 407.451738 C 52.750225 414.351768 225.650963 490.952095 219.600937 501.45214 C 216.250923 507.252164 74.200317 409.351747 69.550297 417.451781 C 64.750276 425.751817 215.55092 494.002108 212.150905 499.802132 C 208.750891 505.652157 78.550335 415.851774 73.450313 424.701812 C 68.600293 433.151848 214.450915 496.352118 210.250897 503.702149 C 205.550877 511.702183 85.100363 427.451824 80.800345 434.851855 C 77.550331 440.55188 190.450813 488.452084 186.250795 495.752115 C 184.700788 498.452127 99.850426 448.001911 98.050418 451.001924 C 95.950409 454.65194 165.350705 485.452071 163.450697 488.752085 C 162.700694 490.052091 123.250526 466.801992 122.350522 468.351998 C 121.450518 469.952005 134.650575 472.252015 133.350569 474.652025 C 133.050568 475.152027 124.050529 469.152002 123.750528 469.802004 C 123.350526 470.402007 139.750596 477.952039 139.250594 478.802043 " transform="matrix(0.0781247,0,0,0.0781247,0,0)"/>
<path style="fill:black;stroke-width:3.19;stroke-linecap:butt;stroke-linejoin:miter;stroke:rgb(40%,40%,40%);stroke-opacity:1;stroke-miterlimit:4;" d="M 78.050333 77.750332 C 174.550745 -23.150099 333.351422 -29.250125 436.00186 89.750383 C 529.75226 184.400787 534.552281 329.551406 433.401849 425.251814 C 334.951429 541.802312 173.000738 531.152266 78.550335 441.451884 C -22.000094 341.451457 -19.000081 172.000734 78.050333 77.750332 Z M 335.851433 100.450429 C 345.551474 98.050418 351.051498 100.75043 351.951502 121.550519 C 350.551496 118.250505 352.401504 396.05169 350.951497 393.75168 C 351.6515 412.801761 344.901472 412.251759 336.051434 416.951779 C 338.251443 417.20178 250.85107 316.151349 249.851066 316.851352 C 251.451073 321.801373 169.550723 317.001353 171.05073 318.351358 C 163.150696 314.601342 160.000683 310.451325 159.950682 312.551334 C 158.700677 312.251332 158.150675 202.850865 163.250697 199.15085 C 161.050687 191.250816 162.150692 193.650826 171.750733 195.250833 C 167.250714 196.750839 252.151076 196.450838 253.301081 196.550839 C 252.551078 194.45083 339.451448 96.750413 335.851433 100.450429 Z M 109.050465 93.100397 C 107.150457 90.850388 195.150833 174.600745 202.700865 190.850814 C 193.950828 188.750805 165.350705 175.450749 168.250718 177.650758 C 163.650698 188.550804 89.550382 106.750455 93.550399 120.750515 C 13.550058 200.150854 18.200078 324.751386 102.150436 407.451738 C 186.400795 499.15213 319.151362 494.952112 402.151716 417.651782 C 402.151716 413.851766 369.351576 378.401615 362.601547 387.851655 C 366.351563 388.451657 365.051558 353.451508 370.20158 344.851471 C 371.751586 344.60147 416.001775 405.50173 419.55179 403.05172 C 494.652111 323.55138 496.252117 189.500809 412.251759 107.550459 C 330.351409 19.850085 197.350842 10.800046 109.050465 93.100397 Z M 109.050465 93.100397 " transform="matrix(0.0781247,0,0,0.0781247,0,0)"/>
<path style="fill:none;stroke-width:2.4;stroke-linecap:butt;stroke-linejoin:miter;stroke:rgb(29.803922%,29.803922%,29.803922%);stroke-opacity:1;stroke-miterlimit:4;" d="M 74.850319 77.000329 C 184.300786 -13.000055 339.251447 -16.900072 438.501871 78.150333 C 525.152241 174.650745 530.452263 331.851416 426.851821 438.651872 C 329.851407 530.952265 170.050726 529.65226 86.350368 432.551846 C -8.250035 330.851412 -12.250052 175.85075 74.850319 77.000329 Z M 337.651441 99.050423 C 346.85148 104.050444 352.051502 107.85046 353.501508 113.750485 C 349.001489 114.050487 351.001498 395.551688 349.001489 402.651718 C 348.451487 406.551735 341.351456 411.651756 342.051459 412.40176 C 339.85145 408.501743 247.051054 318.951361 252.951079 320.401367 C 247.551056 320.551368 171.350731 320.401367 171.800733 321.05137 C 167.350714 319.401363 162.750694 314.351341 158.650677 308.051314 C 161.250688 309.45132 159.150679 204.050871 159.150679 203.050866 C 164.550702 195.750835 166.800712 193.850827 164.750703 192.450821 C 172.750737 196.550839 254.051084 195.150833 253.451081 195.750835 C 251.551073 196.350838 338.251443 101.150432 337.651441 99.050423 Z M 106.450454 92.250394 C 117.2005 98.100419 202.800865 182.050777 200.650856 182.350778 C 195.950836 180.350769 168.350718 180.350769 157.650673 184.800788 C 162.450693 185.350791 88.850379 113.250483 100.200428 107.000457 C 25.450109 193.550826 14.15006 329.001404 106.250453 413.751765 C 178.750763 494.352109 317.951357 496.752119 410.551752 422.951805 C 404.551726 419.051788 368.851574 382.951634 366.151562 382.501632 C 365.55156 383.251635 360.801539 351.6515 367.351567 353.651509 C 372.951591 347.251482 419.201789 400.951711 410.901753 403.751723 C 498.252126 320.001365 495.552114 187.200799 415.751774 104.950448 C 326.451393 25.400108 199.550851 17.550075 106.450454 92.250394 Z M 106.450454 92.250394 " transform="matrix(0.0781247,0,0,0.0781247,0,0)"/>
</g>
</svg>
