<?xml version="1.0" encoding="UTF-8"?>
<svg xmlns="http://www.w3.org/2000/svg" xmlns:xlink="http://www.w3.org/1999/xlink" width="80px" height="100px" viewBox="-4 0 80 100" version="1.1">
<g id="surface1">
<path style=" stroke:black;fill-rule:nonzero;fill:transparent;fill-opacity:1;" d="M 66.46875 68.335938 C 54.691406 81.117188 31.515625 79.992188 18.449219 70.195312 C 15.515625 67.996094 13.171875 65.03125 11.476562 61.640625 C 10.492188 59.671875 9.9375 57.492188 9.496094 55.316406 C 9.261719 54.15625 9.148438 52.972656 9.027344 51.796875 C 8.996094 51.183594 8.972656 50.703125 8.953125 50.339844 C 9.007812 49.488281 9.078125 48.636719 9.183594 47.789062 C 9.824219 41.941406 11.8125 36.40625 14.910156 31.714844 C 13.414062 36.78125 13.253906 42.367188 13.695312 47.730469 C 13.546875 45.960938 13.839844 44.144531 13.695312 42.367188 C 13.429688 39.136719 15.660156 34.433594 17.269531 31.566406 C 19.578125 27.453125 23.070312 24.457031 27.011719 22.378906 C 35.484375 17.90625 46.519531 17.535156 55.414062 20.480469 C 63.355469 23.109375 70.027344 29.914062 72.378906 38.617188 C 75.160156 48.90625 73.546875 60.652344 66.46875 68.335938 Z M 72.378906 33.253906 C 70.433594 24.328125 63.027344 17.980469 55.414062 15.113281 C 50.207031 13.152344 43.957031 12.597656 37.917969 13.511719 C 37.914062 13.457031 37.910156 13.425781 37.902344 13.421875 C 20.144531 12.984375 8.929688 30.507812 8.835938 48.4375 C 8.792969 56.152344 9.023438 63.765625 13.367188 70.261719 C 17.855469 76.976562 25.640625 80.3125 32.871094 81.867188 C 49.746094 85.496094 72.089844 78.804688 73.476562 56.941406 C 73.964844 49.226562 74.019531 40.785156 72.378906 33.253906 "/>
<path style=" stroke:black;fill-rule:nonzero;fill:transparent;fill-opacity:1;" d="M 36.035156 37.039062 C 36.066406 35.761719 32.148438 36.035156 32.113281 37.460938 C 31.929688 45.339844 31.898438 53.214844 32.023438 61.09375 C 32.042969 62.398438 35.964844 62.082031 35.945312 60.667969 C 35.820312 52.789062 35.851562 44.914062 36.035156 37.039062 "/>
<path style=" stroke:black;fill-rule:nonzero;fill:transparent;fill-opacity:1;" d="M 43.003906 37.511719 L 43.003906 63.324219 C 43.003906 65.058594 46.820312 64.226562 46.820312 62.8125 L 46.820312 37.003906 C 46.820312 35.265625 43.003906 36.097656 43.003906 37.511719 "/>
</g>
</svg>
