<?xml version="1.0" encoding="UTF-8"?>
<svg xmlns="http://www.w3.org/2000/svg" xmlns:xlink="http://www.w3.org/1999/xlink" width="80px" height="100px" viewBox="0 0 80 100" version="1.1">
<g id="surface1">
<path style=" stroke:black;fill-rule:nonzero;fill:transparent;fill-opacity:1;" d="M 70.851562 68.339844 C 59.070312 81.125 35.890625 79.992188 22.832031 70.195312 C 19.890625 68 17.546875 65.03125 15.851562 61.640625 C 14.875 59.667969 14.316406 57.492188 13.875 55.3125 C 13.640625 54.160156 13.523438 52.96875 13.40625 51.796875 C 13.378906 51.179688 13.351562 50.703125 13.328125 50.34375 C 13.390625 49.484375 13.457031 48.632812 13.5625 47.792969 C 14.199219 41.945312 16.191406 36.40625 19.289062 31.71875 C 17.792969 36.777344 17.625 42.363281 18.078125 47.734375 C 17.929688 45.96875 18.222656 44.140625 18.078125 42.363281 C 17.804688 39.140625 20.039062 34.433594 21.648438 31.5625 C 23.953125 27.453125 27.453125 24.453125 31.386719 22.375 C 39.863281 17.910156 50.898438 17.53125 59.796875 20.476562 C 67.734375 23.105469 74.40625 29.914062 76.757812 38.613281 C 79.539062 48.90625 77.929688 60.65625 70.851562 68.339844 Z M 76.757812 33.25 C 74.8125 24.328125 67.402344 17.976562 59.796875 15.117188 C 54.589844 13.15625 48.339844 12.597656 42.296875 13.507812 C 42.296875 13.457031 42.285156 13.429688 42.285156 13.429688 C 24.523438 12.988281 13.3125 30.507812 13.210938 48.4375 C 13.171875 56.152344 13.398438 63.757812 17.742188 70.265625 C 22.234375 76.984375 30.019531 80.3125 37.246094 81.867188 C 54.121094 85.5 76.464844 78.808594 77.851562 56.945312 C 78.339844 49.226562 78.398438 40.78125 76.757812 33.25 "/>
<path style=" stroke:black;fill-rule:nonzero;fill:transparent;fill-opacity:1;" d="M 61.269531 47.988281 C 54.355469 42.382812 47.078125 37.265625 39.484375 32.625 C 37.246094 31.257812 36.945312 34.148438 38.71875 35.234375 C 45.28125 39.238281 51.570312 43.625 57.597656 48.378906 C 51.191406 51.796875 44.785156 55.214844 38.378906 58.632812 C 38.3125 52.558594 38.289062 46.476562 38.328125 40.398438 C 38.476562 40.28125 38.585938 40.109375 38.632812 39.851562 C 38.664062 39.679688 38.679688 39.511719 38.710938 39.34375 C 38.835938 38.613281 38.445312 37.832031 37.832031 37.414062 C 37.695312 37.3125 37.546875 37.21875 37.414062 37.117188 C 36.632812 36.59375 34.863281 36.035156 34.851562 37.570312 C 34.796875 45.421875 34.824219 53.273438 34.929688 61.125 C 34.941406 62.351562 36.75 63.769531 37.929688 63.144531 C 45.859375 58.914062 53.78125 54.6875 61.710938 50.460938 C 62.765625 49.890625 61.882812 48.484375 61.269531 47.988281 "/>
</g>
</svg>
