<?xml version="1.0" encoding="UTF-8"?>
<svg xmlns="http://www.w3.org/2000/svg" xmlns:xlink="http://www.w3.org/1999/xlink" width="50px" height="50px" viewBox="0 0 50 50" version="1.1">
<g id="surface1">
<path style=" stroke:none;fill-rule:nonzero;fill:rgb(0%,0%,0%);fill-opacity:1;" d="M 9.8125 6.855469 C 8.996094 6.039062 7.671875 6.039062 6.855469 6.855469 C 6.039062 7.671875 6.039062 8.996094 6.855469 9.8125 L 40.1875 43.144531 C 40.578125 43.539062 41.109375 43.761719 41.667969 43.761719 C 42.222656 43.761719 42.753906 43.539062 43.144531 43.144531 C 43.539062 42.753906 43.761719 42.222656 43.761719 41.667969 C 43.761719 41.109375 43.539062 40.578125 43.144531 40.1875 Z M 9.8125 6.855469 "/>
<path style=" stroke:none;fill-rule:nonzero;fill:rgb(0%,0%,0%);fill-opacity:1;" d="M 35.230469 29.332031 L 38.230469 32.332031 C 41.46875 27.878906 41.410156 21.828125 38.082031 17.4375 C 37.359375 16.539062 36.042969 16.398438 35.144531 17.125 C 34.25 17.851562 34.109375 19.164062 34.832031 20.0625 C 36.832031 22.785156 36.988281 26.449219 35.230469 29.332031 Z M 35.230469 29.332031 "/>
<path style=" stroke:none;fill-rule:nonzero;fill:rgb(0%,0%,0%);fill-opacity:1;" d="M 43.75 25 C 43.707031 28.40625 42.382812 31.671875 40.042969 34.144531 L 43 37.105469 C 46.117188 33.839844 47.875 29.511719 47.917969 25 C 47.839844 19.480469 45.265625 14.296875 40.917969 10.894531 C 40.03125 10.160156 38.714844 10.28125 37.980469 11.167969 C 37.242188 12.050781 37.363281 13.367188 38.25 14.105469 C 41.632812 16.71875 43.65625 20.722656 43.75 25 Z M 43.75 25 "/>
<path style=" stroke:none;fill-rule:nonzero;fill:rgb(0%,0%,0%);fill-opacity:1;" d="M 28.125 37.707031 L 17.5 30.417969 C 17.148438 30.179688 16.734375 30.058594 16.3125 30.0625 L 7.292969 30.0625 L 7.292969 19.9375 L 14.042969 19.9375 L 9.875 15.769531 L 5.207031 15.769531 C 4.058594 15.769531 3.125 16.703125 3.125 17.855469 L 3.125 32.144531 C 3.125 33.296875 4.058594 34.230469 5.207031 34.230469 L 15.625 34.230469 L 28.980469 43.394531 C 29.332031 43.625 29.746094 43.746094 30.167969 43.75 C 31.316406 43.75 32.25 42.816406 32.25 41.667969 L 32.25 38.1875 L 28.082031 34.019531 Z M 28.125 37.707031 "/>
<path style=" stroke:none;fill-rule:nonzero;fill:rgb(0%,0%,0%);fill-opacity:1;" d="M 28.125 12.292969 L 28.125 22.230469 L 32.292969 26.394531 L 32.292969 8.332031 C 32.296875 7.554688 31.871094 6.835938 31.183594 6.472656 C 30.492188 6.109375 29.660156 6.160156 29.019531 6.605469 L 19.230469 13.332031 L 22.230469 16.332031 Z M 28.125 12.292969 "/>
</g>
</svg>
