<?xml version="1.0" encoding="UTF-8"?>
<svg xmlns="http://www.w3.org/2000/svg" xmlns:xlink="http://www.w3.org/1999/xlink" width="50px" height="50px" viewBox="0 0 50 50" version="1.1">
<g id="surface1">
<path style=" stroke:none;fill-rule:nonzero;fill:rgb(0%,0%,0%);fill-opacity:1;" d="M 38.082031 17.4375 C 37.359375 16.539062 36.042969 16.398438 35.144531 17.125 C 34.25 17.851562 34.109375 19.164062 34.832031 20.0625 C 36.992188 23 36.992188 27 34.832031 29.9375 C 34.328125 30.5625 34.226562 31.421875 34.570312 32.148438 C 34.917969 32.875 35.652344 33.335938 36.457031 33.332031 C 37.089844 33.335938 37.6875 33.050781 38.082031 32.5625 C 41.480469 28.09375 41.480469 21.90625 38.082031 17.4375 Z M 38.082031 17.4375 "/>
<path style=" stroke:none;fill-rule:nonzero;fill:rgb(0%,0%,0%);fill-opacity:1;" d="M 40.917969 10.894531 C 40.03125 10.160156 38.714844 10.28125 37.980469 11.167969 C 37.242188 12.050781 37.363281 13.367188 38.25 14.105469 C 41.632812 16.71875 43.65625 20.722656 43.75 25 C 43.65625 29.277344 41.632812 33.28125 38.25 35.894531 C 37.824219 36.25 37.554688 36.757812 37.503906 37.308594 C 37.453125 37.859375 37.625 38.40625 37.980469 38.832031 C 38.375 39.308594 38.964844 39.585938 39.582031 39.582031 C 40.070312 39.585938 40.542969 39.414062 40.917969 39.105469 C 45.265625 35.703125 47.839844 30.519531 47.917969 25 C 47.839844 19.480469 45.265625 14.296875 40.917969 10.894531 Z M 40.917969 10.894531 "/>
<path style=" stroke:none;fill-rule:nonzero;fill:rgb(0%,0%,0%);fill-opacity:1;" d="M 31.25 6.5 C 30.605469 6.128906 29.8125 6.128906 29.167969 6.5 L 15.667969 15.769531 L 5.25 15.769531 C 4.097656 15.769531 3.167969 16.703125 3.167969 17.855469 L 3.167969 32.144531 C 3.167969 33.296875 4.097656 34.230469 5.25 34.230469 L 15.667969 34.230469 L 29.019531 43.394531 C 29.375 43.625 29.785156 43.746094 30.207031 43.75 C 31.359375 43.75 32.292969 42.816406 32.292969 41.667969 L 32.292969 8.332031 C 32.300781 7.578125 31.902344 6.878906 31.25 6.5 Z M 28.1875 37.75 L 17.5 30.417969 C 17.148438 30.179688 16.734375 30.058594 16.3125 30.0625 L 7.292969 30.0625 L 7.292969 19.9375 L 16.3125 19.9375 C 16.734375 19.941406 17.148438 19.820312 17.5 19.582031 L 28.125 12.292969 Z M 28.1875 37.75 "/>
</g>
</svg>
