<?xml version="1.0" encoding="UTF-8"?>
<svg xmlns="http://www.w3.org/2000/svg" xmlns:xlink="http://www.w3.org/1999/xlink" width="25px" height="40px" viewBox="0 0 25 40" version="1.1">
<g id="surface1">
<path style=" stroke:none;fill-rule:nonzero;fill:rgb(0%,0%,0%);fill-opacity:1;" d="M 3.75 5 C 1.679688 5 0 6.679688 0 8.75 L 0 31.25 C 0 33.320312 1.679688 35 3.75 35 L 6.25 35 C 8.320312 35 10 33.320312 10 31.25 L 10 8.75 C 10 6.679688 8.320312 5 6.25 5 Z M 18.75 5 C 16.679688 5 15 6.679688 15 8.75 L 15 31.25 C 15 33.320312 16.679688 35 18.75 35 L 21.25 35 C 23.320312 35 25 33.320312 25 31.25 L 25 8.75 C 25 6.679688 23.320312 5 21.25 5 Z M 18.75 5 "/>
</g>
</svg>
